<?xml version="1.0" encoding="UTF-8" standalone="no"?>
<!-- Created with Inkscape (http://www.inkscape.org/) -->

<svg
   version="1.1"
   id="svg1"
   width="597"
   height="589"
   viewBox="0 0 597 589"
   sodipodi:docname="logo_03.svg"
   inkscape:version="1.4 (86a8ad7, 2024-10-11)"
   xmlns:inkscape="http://www.inkscape.org/namespaces/inkscape"
   xmlns:sodipodi="http://sodipodi.sourceforge.net/DTD/sodipodi-0.dtd"
   xmlns="http://www.w3.org/2000/svg"
   xmlns:svg="http://www.w3.org/2000/svg">
  <defs
     id="defs1" />
  <sodipodi:namedview
     id="namedview1"
     pagecolor="#ffffff"
     bordercolor="#cccccc"
     borderopacity="1"
     inkscape:showpageshadow="0"
     inkscape:pageopacity="1"
     inkscape:pagecheckerboard="0"
     inkscape:deskcolor="#d1d1d1"
     showgrid="false"
     inkscape:zoom="1.3565365"
     inkscape:cx="298.18586"
     inkscape:cy="294.5"
     inkscape:window-width="1920"
     inkscape:window-height="1001"
     inkscape:window-x="1913"
     inkscape:window-y="-7"
     inkscape:window-maximized="1"
     inkscape:current-layer="g1" />
  <g
     inkscape:groupmode="layer"
     inkscape:label="Image"
     id="g1">
    <path
       style="fill:#fefefe;fill-opacity:0"
       d="M 0.7371701,295.97434 V 1.4743429 h 298.4999999 298.5 v 294.4999971 294.5 h -298.5 H 0.7371701 Z M 479.40155,579.97994 c 17.15586,-2.78248 35.67583,-10.29479 51.32768,-20.8202 10.88642,-7.32081 28.43179,-25.23504 35.93002,-36.6854 11.5166,-17.58671 17.53674,-32.84729 20.51348,-52 1.47172,-9.46926 1.601,-27.38455 1.31698,-182.5 -0.29261,-159.81115 -0.43847,-172.46063 -2.05826,-178.5 C 581.03482,89.352914 573.97931,73.761029 564.46755,60.93656 557.11602,51.024671 541.52133,35.80443 532.73717,29.968069 521.93657,22.791944 509.68223,16.852449 498.44555,13.347437 477.1326,6.6993748 490.12825,7.1430679 304.73717,6.7339095 190.50737,6.4818041 132.65143,6.7047166 125.10403,7.4260158 108.01529,9.0591754 95.222068,12.625039 80.23717,19.931791 65.597374,27.070269 56.745088,33.158223 46.491905,43.139312 29.181668,59.99018 18.584753,76.692898 11.862414,97.721861 5.4857975,117.66933 5.7456115,109.35747 5.7411914,293.54945 c -0.00391,162.75955 0.052987,167.8917 1.9797848,178.59223 2.5718488,14.28285 5.2111468,22.7505 10.5453608,33.83266 16.447753,34.17123 48.124758,61.00238 83.920433,71.08255 15.2796,4.30277 12.14936,4.23303 194.0504,4.32318 149.4704,0.0741 175.29195,-0.12331 183.16438,-1.40013 z M 160.73717,479.92175 c 0,-84.96837 0.0337,-84.50571 -6.93392,-95.14954 -2.12879,-3.25198 -13.68513,-15.49388 -26.31772,-27.87899 -12.38728,-12.14461 -23.35332,-23.61961 -24.36897,-25.5 -1.64279,-3.04147 -1.88604,-6.51952 -2.2036,-31.50721 l -0.35697,-28.08833 5.55503,-2.71782 c 13.72251,-6.7138 20.62527,-23.75482 16.26076,-40.14335 -4.02446,-15.11165 -18.68427,-25.89601 -35.212062,-25.90344 -5.955247,-0.003 -8.115251,0.50773 -13.622578,3.21898 -7.778495,3.82934 -13.938894,10.13831 -17.622155,18.04714 -2.224333,4.77617 -2.638683,7.0393 -2.61575,14.28689 0.02423,7.65706 0.385975,9.34041 3.263166,15.18482 3.593312,7.29905 11.127211,14.87258 16.587329,16.67458 l 3.343367,1.10341 0.16099,30.67414 c 0.154777,29.49034 0.252677,30.93778 2.536762,37.50566 3.071223,8.8313 5.452589,11.62998 30.575151,35.93308 14.28526,13.8193 21.71252,21.75107 23.23432,24.81257 l 2.23685,4.5 0.28043,74.75 0.28044,74.75 -4.78044,-0.0157 c -2.62924,-0.009 -8.83421,-0.87156 -13.78884,-1.91765 C 95.214167,547.89296 76.87848,537.66889 61.126137,521.25789 47.046116,506.58915 39.938684,493.97903 34.475729,473.97434 l -2.184669,-8 -0.319968,-165.5 c -0.222666,-115.17128 0.01089,-168.08486 0.768025,-174 C 35.861611,102.07973 46.637079,80.458386 63.909085,63.930728 77.456937,50.966729 92.332341,42.417801 109.70571,37.611306 l 9.53146,-2.636963 h 177.5 177.5 l 8.47795,2.315955 c 19.97284,5.456061 34.60366,13.828512 49.05476,28.071456 14.59174,14.381571 23.36889,29.309925 28.80593,48.993706 l 2.65692,9.61888 0.002,168 c 0.002,182.33591 0.27647,172.9571 -5.55994,190.27249 -11.85227,35.16316 -41.87872,61.48239 -80.42943,70.49922 -8.85179,2.07039 -11.10777,2.11302 -129.75841,2.45222 l -120.74978,0.3452 v -98.30621 c 0,-93.27746 -0.0965,-98.65436 -1.88724,-105.11218 -1.03798,-3.74329 -3.50407,-9.13355 -5.4802,-11.97836 -1.97612,-2.84481 -13.68564,-14.95764 -26.02114,-26.9174 -15.04264,-14.58444 -23.10424,-23.14617 -24.4812,-26 -1.99359,-4.13181 -2.05687,-5.94425 -2.18618,-62.61194 l -0.13317,-58.35696 5.84456,-2.94109 c 7.76081,-3.90538 13.60564,-9.80705 16.83145,-16.99511 9.78477,-21.80337 1.80142,-44.69405 -19.1897,-55.022628 -6.23822,-3.069488 -7.49939,-3.325849 -16.27963,-3.309179 -8.19893,0.01557 -10.31456,0.38907 -15.27019,2.695886 -7.48803,3.485626 -16.23938,11.838171 -19.80658,18.903981 -9.83605,19.48295 -2.70722,43.96634 15.58459,53.524 l 5.46988,2.85806 0.0384,55 c 0.0415,59.41457 0.245,64.26186 3.03732,72.3484 3.24012,9.3834 7.6395,14.67176 30.99734,37.26091 16.2445,15.7099 23.51857,23.44782 25.14426,26.74766 l 2.28743,4.64303 0.28092,96.75 0.28091,96.75 h -20.53091 -20.53092 z m 356.56609,9.06672 c 2.82838,-1.65754 4.94025,-3.92863 6.33786,-6.81572 4.86657,-10.05298 2.54405,-14.43442 -19.67826,-37.12317 -9.74913,-9.95376 -20.33594,-20.82872 -23.52625,-24.16658 l -5.80056,-6.06884 4.54876,-6.91991 c 5.54596,-8.43694 11.83853,-22.53709 14.76247,-33.07917 1.88664,-6.80218 2.18232,-10.48988 2.23229,-27.84074 0.0508,-17.64239 -0.2028,-20.95076 -2.15144,-28.0655 -9.78063,-35.71031 -40.32585,-66.18559 -75.23884,-75.06654 -27.32263,-6.95017 -50.82639,-4.57147 -75.77542,7.66885 -28.71779,14.08932 -49.81578,42.11837 -56.80255,75.46319 -1.36594,6.51903 -1.69546,28.56763 -0.54779,36.65299 3.51554,24.76704 12.56677,43.17885 29.60038,60.21246 12.78335,12.78335 27.94904,21.71829 46.47326,27.37996 7.87903,2.40811 9.92459,2.60124 28,2.64369 18.49656,0.0434 19.96313,-0.0958 28.5,-2.70563 9.0515,-2.76717 21.50174,-8.35991 29.08415,-13.06481 l 4.08416,-2.53422 9.41584,10.35995 c 25.02302,27.53203 39.54708,42.82709 41.86619,44.0886 4.01038,2.18152 9.84927,1.77449 14.61575,-1.01886 z M 396.73717,389.11584 c 0,-35.29737 -0.17068,-39.53826 -1.64035,-40.75798 -1.08672,-0.9019 -5.26942,-1.48558 -12.39303,-1.72941 -16.29828,-0.55785 -14.96662,-4.2383 -14.96662,41.36494 v 37.51905 l -2.75,-0.66211 c -1.5125,-0.36416 -4.8875,-1.73031 -7.5,-3.03589 l -4.75,-2.37379 v -24.48316 c 0,-30.24353 0.89175,-28.48315 -14.42857,-28.48315 -9.87598,0 -11.55598,0.40721 -13.70299,3.32143 -0.0724,0.0982 -0.40986,5.35357 -0.75,11.67857 l -0.61844,11.5 -3.13521,-6 c -5.67634,-10.86308 -7.55518,-18.63288 -8.10076,-33.5 -0.99111,-27.00796 5.43697,-44.37453 22.89314,-61.84975 25.62562,-25.65356 64.93914,-30.5791 96.13689,-12.04486 7.70209,4.57573 18.97532,14.76907 24.1898,21.87262 5.53497,7.54014 11.18975,19.49604 13.15716,27.81815 2.68742,11.36778 2.46656,29.23859 -0.49015,39.65877 -3.89397,13.72337 -12.31297,27.18419 -23.86892,38.16315 l -3.28195,3.11807 v -47.17951 c 0,-56.67366 1.43913,-51.55664 -14.5,-51.55664 -16.04076,0 -14.5,-6.26925 -14.5,58.99951 v 54.62239 l -4.75,1.11752 c -2.6125,0.61463 -5.9875,1.38328 -7.5,1.7081 l -2.75,0.59058 z M 264.51186,343.96579 c 2.70402,-29.44785 11.3717,-53.66033 26.48776,-73.99145 7.18076,-9.65814 18.21686,-21.09156 25.98755,-26.92315 l 3.75,-2.81423 v -16.55257 c 0,-13.99901 -0.25531,-16.83469 -1.65499,-18.38131 -1.52406,-1.68407 -3.75272,-1.82874 -28.17126,-1.82874 -23.27034,0 -26.74013,0.20259 -28.34501,1.65499 -1.73867,1.57347 -1.82874,5.12317 -1.82874,72.07332 0,66.52485 0.0968,70.39999 1.75,70.08646 1.12037,-0.21247 1.84883,-1.40817 2.02469,-3.32332 z M 496.73717,189.97434 c 0,-87.16667 -0.0301,-88.53013 -2,-90.499997 -1.89811,-1.898107 -3.33333,-2 -28.17126,-2 -22.94931,0 -26.3964,0.203746 -28,1.654988 -1.73548,1.570589 -1.82874,4.929399 -1.82874,65.866009 v 64.21102 l 5.93787,2.16505 c 14.58762,5.31892 34.84739,22.26299 46.45585,38.85293 3.17502,4.5375 6.18531,8.25 6.68952,8.25 0.54877,0 0.91676,-35.52401 0.91676,-88.5 z m -142.00038,35.00013 c 9.32326,-3.28944 22.86725,-4.79538 38.23073,-4.25083 l 14.76965,0.5235 v -30.05766 c 0,-26.56564 -0.19227,-30.27012 -1.65499,-31.8864 -1.52457,-1.68464 -3.75814,-1.82874 -28.34501,-1.82874 -25.85892,0 -26.74934,0.0655 -28.59501,2.10386 -1.76692,1.95138 -1.92961,4.27614 -2.24461,32.07486 -0.18679,16.48405 -0.0657,31.06231 0.26905,32.39614 0.70962,2.82735 1.80104,2.96075 7.57019,0.92527 z M 80.13717,246.07434 c -2.787302,-2.7873 -3.4,-4.15686 -3.4,-7.6 0,-3.44314 0.612698,-4.8127 3.4,-7.6 2.774208,-2.77421 4.163772,-3.4 7.54966,-3.4 7.782552,0 12.54684,4.46794 12.34531,11.57741 -0.193222,6.8166 -4.504129,10.42259 -12.46007,10.42259 -3.255377,0 -4.691764,-0.65686 -7.4349,-3.4 z m 66.90867,-105.49845 c -10.66225,-4.9637 -10.80282,-19.96265 -0.23759,-25.35 12.84936,-6.55204 26.62676,8.48841 18.64159,20.35057 -4.12049,6.12109 -11.6191,8.15808 -18.404,4.99943 z"
       id="path9" />
    <path
       style="fill:#50dac8"
       d="m 136.73717,482.53336 c 0,-49.44935 -0.33516,-73.14813 -1.04068,-73.58416 -0.57237,-0.35375 -0.77753,-1.47227 -0.45591,-2.48561 0.32162,-1.01334 -0.10767,-3.49968 -0.95398,-5.5252 -1.6718,-4.00118 -16.13723,-19.50632 -17.88491,-19.1704 -0.59049,0.11349 -1.10096,-0.24365 -1.13438,-0.79365 -0.11029,-1.81496 -1.65156,-3.54299 -2.62401,-2.94198 -0.52563,0.32485 -0.83203,-0.005 -0.68091,-0.73369 0.15113,-0.72838 -0.28772,-1.21183 -0.97522,-1.07433 -0.6875,0.1375 -1.1375,-0.1824 -1,-0.71089 0.1375,-0.52848 -1.58692,-2.66598 -3.83204,-4.75 -6.95872,-6.45936 -21.806947,-20.78911 -21.541303,-20.78911 0.138734,0 -1.238754,-3.15 -3.061082,-7 l -3.313325,-7 -0.721504,-25 c -0.396827,-13.75 -0.750909,-28.25926 -0.78685,-32.24279 -0.06306,-6.9896 -0.168972,-7.29638 -3.029621,-8.77568 -1.630351,-0.84309 -2.964275,-1.21033 -2.964275,-0.81608 0,0.39424 -0.660688,-0.1567 -1.468197,-1.22432 -0.807508,-1.06762 -1.482508,-1.57626 -1.5,-1.13031 -0.07376,1.88062 -8.575151,-9.26036 -10.920199,-14.31082 -2.094841,-4.51159 -2.558977,-7.02754 -2.582693,-14 -0.02506,-7.36715 0.370651,-9.36607 2.969078,-14.99829 2.938217,-6.36873 6.659718,-10.54616 12.884736,-14.46326 1.714501,-1.07886 3.342275,-2.20386 3.617275,-2.5 0.275,-0.29615 1.4,-0.69593 2.5,-0.8884 1.1,-0.19247 2.225,-0.64247 2.5,-1 0.574185,-0.7465 2.825411,-1.03329 8.5,-1.08285 5.784034,-0.0505 8.494224,0.46084 13,2.45285 2.2,0.97263 4.54314,1.77851 5.20697,1.79085 0.66383,0.0123 1.43721,0.62243 1.71861,1.35577 0.28141,0.73333 1.08827,1.35907 1.79304,1.39053 0.70476,0.0315 3.18856,2.36498 5.51956,5.18561 3.6559,4.42383 4.99109,7.05336 8.00096,15.75719 0.76599,2.21505 0.86532,14.12663 0.12164,14.58614 -0.35157,0.21723 -0.901,1.43797 -1.22095,2.71277 -0.31996,1.27479 -1.22884,3.86654 -2.01975,5.75944 -0.7909,1.89291 -1.59147,3.8521 -1.77904,4.35376 -0.63363,1.69465 -6.33506,7.1667 -7.0981,6.81252 -0.41639,-0.19326 -1.02604,0.34954 -1.35479,1.20624 -0.32874,0.85671 -0.96429,1.33109 -1.41231,1.0542 -0.44803,-0.2769 -1.52588,0.20783 -2.39522,1.07717 -0.86934,0.86934 -1.58062,1.26837 -1.58062,0.88674 0,-0.38163 -0.6039,-0.19267 -1.34201,0.4199 -0.7381,0.61257 -1.6381,0.81767 -2,0.45578 -0.36189,-0.3619 -0.65799,10.86545 -0.65799,24.94966 0,16.93727 0.35841,25.82915 1.05855,26.26186 0.59549,0.36804 0.7886,1.88325 0.44145,3.46382 -0.3512,1.59902 -0.15397,3.09583 0.45777,3.4739 0.59117,0.36536 0.81829,1.07943 0.50471,1.58682 -0.31359,0.50738 0.57907,2.07174 1.98368,3.47635 1.40461,1.40461 2.55384,2.88295 2.55384,3.2852 0,1.50912 13.64465,14.20299 14.46465,13.45674 0.4708,-0.42846 0.56947,-0.27665 0.21926,0.33734 -0.66095,1.15878 2.59012,4.77628 3.48671,3.8797 0.27957,-0.27957 1.36805,0.50695 2.41884,1.74782 l 1.91054,2.25613 -2.5,-1.99285 -2.5,-1.99284 2.38274,2.6986 c 1.31051,1.48422 2.67239,2.60601 3.02639,2.49284 0.354,-0.11316 5.35676,4.63576 11.11725,10.55316 5.76049,5.91741 10.24862,10.76922 9.97362,10.78181 -0.275,0.0126 0.37351,0.68358 1.44113,1.49108 1.06762,0.80751 1.60468,1.4682 1.19346,1.4682 -0.41121,0 0.0498,1.35 1.02448,3 0.97468,1.65 2.15168,3 2.61555,3 0.46388,0 0.58864,0.41224 0.27724,0.91608 -0.31139,0.50385 -4.5e-4,2.19135 0.69099,3.75 0.96042,2.16503 1.37516,21.42135 1.75715,81.58423 l 0.5,78.75031 -11.75,-3.1e-4 -11.75,-3.1e-4 z M 98.0332,246.46581 c 1.97616,-2.20942 2.60451,-3.72949 2.14287,-5.18399 -0.477259,-1.5037 -0.313384,-1.84794 0.60847,-1.2782 0.84703,0.52349 1.01213,0.37602 0.5024,-0.44875 -0.41758,-0.67566 -0.8549,-2.61021 -0.97182,-4.29899 -0.22193,-3.20571 -4.913033,-8.31052 -6.650324,-7.23681 -0.510194,0.31532 -0.927626,0.14046 -0.927626,-0.38856 0,-1.32427 -8.988144,-0.7937 -11.73965,0.69299 -5.063148,2.73572 -7.013583,12.39761 -3.26035,16.15084 1.1,1.1 1.688992,2 1.30887,2 -0.380121,0 0.177416,0.6351 1.238972,1.41132 1.061556,0.77623 2.272564,1.19968 2.69113,0.94099 0.418565,-0.25869 0.761028,-0.0368 0.761028,0.49299 0,0.54615 2.490095,0.81369 5.75,0.61778 4.958185,-0.29797 6.135033,-0.77603 8.54603,-3.47161 z m 104.70397,214.06755 c 0,-59.32476 -0.35876,-95.16271 -0.95633,-95.53203 -0.52598,-0.32507 -0.70063,-1.25736 -0.38812,-2.07175 0.31251,-0.81439 -0.0446,-2.23636 -0.79367,-3.15993 -1.15484,-1.42394 -1.14997,-1.55154 0.0321,-0.83928 0.98852,0.59564 0.8823,-0.0262 -0.3652,-2.13807 -1.66857,-2.82467 -28.59191,-30.19968 -27.11311,-27.56796 1.62968,2.90022 -0.36138,0.93038 -2.82978,-2.79962 -1.47395,-2.22729 -3.496,-4.36479 -4.49345,-4.75 -1.94058,-0.74944 -20.33654,-20.63858 -19.88137,-21.49511 0.42877,-0.80691 -2.56827,-7.70527 -3.34764,-7.70527 -0.5398,0 -0.78068,-0.3375 -0.53528,-0.75 0.2454,-0.4125 -0.16832,-4.8 -0.91939,-9.75 -1.02449,-6.75211 -1.37096,-22.56451 -1.38716,-63.30902 -0.013,-32.56427 -0.38779,-54.08269 -0.93619,-53.74377 -0.50302,0.31089 -1.06552,0.20826 -1.25,-0.22805 -0.18448,-0.43632 -2.36041,-2.00971 -4.83541,-3.49642 -4.47867,-2.6903 -12.85907,-9.62793 -10,-8.27839 0.825,0.38941 0.46776,-0.20188 -0.79387,-1.31398 -1.26163,-1.1121 -2.24165,-2.28379 -2.17782,-2.60375 0.15716,-0.7878 -3.28515,-9.89922 -3.97697,-10.52662 -1.13431,-1.02868 -1.13077,-12.30127 0.006,-17.79823 1.79246,-8.67076 5.99849,-16.02329 12.83928,-22.444231 3.36487,-3.158355 6.22727,-5.758565 6.36088,-5.778243 2.39231,-0.352414 4.7425,-1.420218 4.7425,-2.154941 0,-0.518312 0.4407,-0.670018 0.97933,-0.337125 0.53864,0.332894 1.95294,0.08421 3.14289,-0.552637 2.418,-1.294074 15.79955,-1.719008 17.67291,-0.561208 0.66268,0.409558 1.65487,0.466537 2.20487,0.126618 0.55,-0.339919 1,-0.09333 1,0.547972 0,0.641303 0.675,0.906984 1.5,0.590402 0.825,-0.316583 1.5,-0.208071 1.5,0.241136 0,0.449208 1.9125,1.667584 4.25,2.707502 2.3375,1.039919 5.0888,2.93196 6.114,4.204537 1.02521,1.272577 2.1088,2.068982 2.408,1.769789 0.7393,-0.739309 3.31896,1.482479 2.76394,2.380509 -0.24312,0.39338 0.77433,2.08446 2.26101,3.75797 1.48668,1.6735 2.85163,3.6589 3.03323,4.41199 0.1816,0.75309 0.6316,1.59852 1,1.87873 0.3684,0.2802 0.80104,1.40946 0.96142,2.50946 0.16038,1.1 0.55539,3.90351 0.8778,6.23003 0.32241,2.32652 0.92114,4.02303 1.33051,3.77002 0.92347,-0.57073 0.53852,7.35897 -0.47331,9.74995 -0.40732,0.9625 -0.48156,2.425 -0.16497,3.25 0.31658,0.825 0.21095,1.5 -0.23473,1.5 -0.44568,0 -1.33021,1.73522 -1.96563,3.85605 -0.63541,2.12083 -2.26808,5.49583 -3.62815,7.5 -1.36006,2.00417 -2.29011,3.64395 -2.06676,3.64395 0.22335,0 -0.80271,1.25934 -2.28013,2.79854 -1.47743,1.5392 -3.02691,2.63568 -3.44329,2.43662 -0.41639,-0.19906 -1.02604,0.33901 -1.35479,1.19571 -0.32874,0.85671 -0.93242,1.35079 -1.34149,1.09797 -0.40908,-0.25282 -1.60913,0.34652 -2.66679,1.33188 -1.05766,0.98536 -2.47581,1.6073 -3.15144,1.38209 -0.67564,-0.22521 -1.22843,0.10458 -1.22843,0.73287 0,0.6283 -0.40285,0.89338 -0.89522,0.58908 -0.49236,-0.3043 -1.17657,0.17993 -1.52044,1.07606 -1.0959,2.85586 -0.58079,117.35918 0.52796,117.35918 0.55315,0 0.73579,0.43678 0.40585,0.97063 -0.32994,0.53385 0.0628,2.22135 0.87267,3.75 1.51989,2.86869 31.05857,32.77937 32.3717,32.77937 0.40562,0 0.64489,0.27776 0.53173,0.61726 -0.26865,0.80595 4.76561,5.53646 5.19628,4.88274 0.18117,-0.275 2.62013,1.88919 5.41992,4.80932 2.79979,2.92013 4.61418,5.01492 4.03198,4.6551 -0.58221,-0.35982 0.20507,1.13762 1.74951,3.32764 1.54443,2.19003 3.25806,3.73559 3.80806,3.43458 0.55,-0.30101 0.71448,-0.22712 0.36551,0.16419 -0.34897,0.39131 0.32603,3.05096 1.5,5.91033 2.12422,5.17383 2.1358,5.68352 2.40762,105.94884 l 0.27312,100.75 H 214.2603 202.73717 Z m 7,-130.43658 c 0,-0.20765 -0.7875,-0.99515 -1.75,-1.75 -1.58606,-1.24387 -1.62143,-1.2085 -0.37756,0.37756 1.30637,1.66575 2.12756,2.19548 2.12756,1.37244 z M 163.71391,138.99662 c 1.62368,-1.55558 2.71659,-3.20947 2.42869,-3.6753 -0.28791,-0.46584 -0.0203,-0.84698 0.59457,-0.84698 0.61492,0 0.85914,-0.41891 0.54271,-0.9309 -0.31644,-0.512 -0.11799,-1.21356 0.44098,-1.55902 1.36137,-0.84137 1.29392,-7.10121 -0.10588,-9.82582 -1.67611,-3.26244 -6.0641,-7.68716 -7.03083,-7.08969 -0.46584,0.28791 -0.84698,-0.001 -0.84698,-0.64254 0,-0.6413 -0.675,-0.90699 -1.5,-0.5904 -0.825,0.31658 -1.5,0.13972 -1.5,-0.39301 0,-1.30629 -3.42613,-1.22084 -8.182,0.20405 -4.29406,1.28654 -10.25858,7.23681 -9.42683,9.40431 0.28681,0.74743 0.0911,1.62494 -0.43484,1.95001 -2.91167,1.79951 1.3652,12.48167 6.16633,15.40141 2.49739,1.51875 4.68854,1.90704 9.57044,1.69597 5.38458,-0.23281 6.77301,-0.69675 9.28364,-3.10209 z M 502.2709,488.47434 c -1.94593,-1.375 -7.66315,-7 -12.70491,-12.5 -15.4887,-16.89644 -22.27708,-24.03819 -21.37323,-22.48577 0.5164,0.88694 0.49816,1.1499 -0.0453,0.65244 -0.50068,-0.45834 -0.91033,-1.15952 -0.91033,-1.5582 0,-0.39867 -3.56274,-4.63863 -7.9172,-9.42212 l -7.9172,-8.69726 -2.5828,1.70005 c -1.42054,0.93503 -3.8203,2.32045 -5.3328,3.0787 -1.5125,0.75825 -2.75,1.79568 -2.75,2.3054 0,0.50972 -0.3375,0.81976 -0.75,0.68899 -1.33921,-0.42456 -7.25,2.44992 -7.25,3.52576 0,0.57494 -0.27668,0.76866 -0.61485,0.4305 -0.33816,-0.33817 -3.41862,0.44049 -6.84547,1.73035 -3.42684,1.28986 -8.88766,2.86812 -12.13515,3.50724 -3.24749,0.63911 -6.56242,1.38294 -7.36651,1.65293 -2.64911,0.88953 -29.43735,0.42964 -34.39887,-0.59054 -2.67347,-0.54972 -5.22254,-0.77595 -5.66459,-0.50275 -0.44206,0.27321 -0.97464,-0.016 -1.18352,-0.6426 -0.20888,-0.62665 -1.82129,-1.19195 -3.58313,-1.25624 -1.76184,-0.0643 -3.20438,-0.50252 -3.20563,-0.97387 -0.001,-0.47134 -0.67728,-0.59797 -1.50228,-0.28138 -0.825,0.31658 -1.50169,0.25222 -1.50375,-0.14301 -0.004,-0.83978 -8.69753,-4.55195 -10.65972,-4.55195 -0.73509,0 -1.33653,-0.40156 -1.33653,-0.89235 0,-0.4908 -0.45,-0.61424 -1,-0.27432 -0.55,0.33992 -1,0.22434 -1,-0.25684 0,-0.76383 -7.15597,-5.31693 -8.41533,-5.35439 -0.25849,-0.008 -2.14061,-1.54421 -4.18248,-3.4145 -2.04188,-1.87028 -3.98018,-3.28807 -4.30735,-3.15064 -0.32716,0.13744 -4.24834,-3.47915 -8.71373,-8.03687 -4.46535,-4.55772 -7.95583,-8.28676 -7.75657,-8.28676 0.19926,0 -1.22831,-2.08379 -3.17237,-4.63065 -3.55627,-4.65897 -12.45213,-21.92289 -12.45213,-24.16547 0,-0.66213 -0.3375,-1.20477 -0.75,-1.20587 -0.4125,-0.001 -0.85055,-1.42965 -0.97344,-3.17457 -0.12289,-1.74491 -0.57289,-3.43152 -1,-3.74801 -0.42711,-0.31649 -0.82611,-1.47543 -0.88667,-2.57543 -0.0606,-1.1 -0.65935,-5.8208 -1.33063,-10.49066 -1.24114,-8.63417 -1.1411,-38.00482 0.12947,-38.00775 0.69491,-0.002 2.38708,-8.43464 2.1574,-10.75159 -0.0682,-0.6875 0.32424,-1.25 0.87197,-1.25 0.54773,0 0.73686,-0.675 0.42027,-1.5 -0.31658,-0.825 -0.13972,-1.5 0.39301,-1.5 0.53274,0 0.96862,-0.44129 0.96862,-0.98065 0,-0.53935 1.89459,-4.92685 4.21021,-9.75 2.31561,-4.82314 4.07811,-9.21935 3.91667,-9.76935 -0.16145,-0.55 0.0296,-0.67688 0.42451,-0.28195 0.64765,0.64765 7.31391,-8.29973 6.68346,-8.97046 -0.14583,-0.15515 1.31667,-1.67095 3.25,-3.36843 1.93333,-1.69749 3.51515,-3.42678 3.51515,-3.84287 0,-0.88581 7.06306,-8.52367 7.91863,-8.56305 0.92466,-0.0426 13.50363,-9.55323 14.31606,-10.82404 0.40408,-0.63206 0.74158,-0.80604 0.75,-0.38663 0.008,0.41942 3.05281,-0.76045 6.76531,-2.62192 7.32551,-3.67306 21.33247,-8.64065 24.36377,-8.64065 1.03743,0 1.88623,-0.37206 1.88623,-0.82681 0,-0.45474 1.35,-0.62867 3,-0.3865 1.65,0.24217 3,0.0517 3,-0.42319 0,-0.47493 1.6875,-0.97618 3.75,-1.1139 2.0625,-0.13772 6.45,-0.43576 9.75,-0.66229 3.3,-0.22654 6.55403,0.0467 7.23119,0.60723 0.67715,0.56052 3.03965,0.84665 5.25,0.63586 2.21034,-0.21079 4.01881,0.0186 4.01881,0.50975 0,0.49115 1.13574,0.67589 2.52387,0.41054 1.38812,-0.26536 2.77599,-0.0745 3.08415,0.4241 0.30816,0.49861 1.42242,0.63294 2.47614,0.2985 1.15144,-0.36545 1.91584,-0.13565 1.91584,0.57595 0,0.6915 0.83154,0.96657 1.999,0.66127 1.09946,-0.28751 2.26997,-0.0843 2.60115,0.45154 0.33119,0.53587 1.23163,0.73274 2.001,0.43751 0.76937,-0.29524 1.39885,-0.0528 1.39885,0.53881 0,0.59159 0.675,0.81659 1.5,0.5 0.825,-0.31658 1.5,-0.0916 1.5,0.5 0,0.59159 0.69837,0.80762 1.55194,0.48007 1.01395,-0.38909 1.30374,-0.19394 0.83595,0.56295 -0.47816,0.77368 -0.16325,0.94638 0.94807,0.51993 0.91522,-0.3512 1.66404,-0.17612 1.66404,0.38908 0,0.5652 0.45,0.74952 1,0.4096 0.55,-0.33992 1,-0.19026 1,0.33257 0,0.52284 1.0454,1.21299 2.3231,1.53368 1.27771,0.32068 4.01699,1.73256 6.08728,3.1375 2.0703,1.40494 4.28578,2.65385 4.92328,2.77534 0.63751,0.1215 1.70892,0.89591 2.38092,1.72091 0.672,0.825 1.23612,1.11265 1.25362,0.63922 0.0175,-0.47344 0.91683,0.20156 1.99853,1.5 1.0817,1.29843 1.9817,1.99819 2,1.55502 0.0183,-0.44317 1.19457,0.45683 2.61394,2 1.41938,1.54317 2.24723,2.13076 1.83968,1.30576 -0.90117,-1.82424 -0.99465,-1.91526 5.64836,5.5 2.95632,3.3 5.75872,5.87635 6.22754,5.72522 0.46883,-0.15112 0.58967,0.15034 0.26855,0.66993 -0.32112,0.51958 0.60612,1.88073 2.06053,3.02478 1.45441,1.14404 2.2462,2.09504 1.75953,2.11334 -0.48667,0.0183 0.1085,0.86243 1.32262,1.87586 1.21411,1.01342 1.9372,2.11286 1.60687,2.44319 -0.33033,0.33033 0.13622,0.88335 1.03678,1.22893 0.90056,0.34557 1.38645,1.03434 1.07974,1.5306 -0.3067,0.49625 0.1433,1.17125 1,1.5 0.85671,0.32874 1.31881,0.98415 1.02691,1.45646 -0.2919,0.47231 0.38568,1.77515 1.50575,2.89522 1.12006,1.12006 1.9916,2.27968 1.93675,2.57694 -0.24252,1.31448 4.4273,11.45953 5.27488,11.45953 0.51858,0 0.69908,0.39447 0.40111,0.87659 -0.5563,0.90011 1.83482,10.43983 3.28936,13.12341 1.11178,2.05119 1.18356,44.2351 0.0775,45.56816 -0.48743,0.58749 -1.01155,2.61249 -1.1647,4.5 -0.15316,1.88751 -0.60483,3.67651 -1.00371,3.97555 -0.39888,0.29905 -0.84888,1.64905 -1,3 -0.15112,1.35096 -0.51474,2.68129 -0.80805,2.95629 -0.2933,0.275 -1.80363,3.5309 -3.35628,7.23533 -1.55265,3.70443 -4.4082,9.32943 -6.34568,12.5 -1.93747,3.17057 -3.53964,6.32717 -3.56038,7.01467 -0.0207,0.6875 -0.25571,1.03199 -0.52216,0.76554 -0.64912,-0.64912 -3.11032,2.65897 -3.15041,4.23446 -0.0175,0.6875 0.32752,1.1375 0.76669,1 0.43917,-0.1375 3.5217,2.9 6.85007,6.75 3.32837,3.85 10.84405,11.60644 16.70151,17.23654 5.85746,5.6301 10.64993,10.71916 10.64993,11.30902 0,0.58986 0.40467,0.82238 0.89926,0.5167 0.49459,-0.30567 2.18209,1.01499 3.75,2.93481 1.56791,1.91982 4.09162,5.02149 5.60824,6.89259 8.47708,10.45841 6.99682,20.01141 -4.35576,28.11034 -2.59912,1.85421 -8.6616,1.11895 -12.36801,-1.5 z m -94.56276,-61.79852 c 0.29097,-0.38582 1.09153,-0.74648 1.77903,-0.80148 0.6875,-0.055 1.70752,-0.1675 2.26672,-0.25 0.67853,-0.10011 0.928,-18.44077 0.75,-55.13917 -0.21668,-44.67296 -0.0203,-55.08369 1.04666,-55.49294 0.72236,-0.27707 1.06648,-0.90326 0.76472,-1.39152 -0.30407,-0.49199 4.20512,-0.9637 10.11468,-1.0581 5.86484,-0.0937 10.96539,-0.35701 11.33457,-0.58517 0.36917,-0.22816 1.25686,0.67944 1.97265,2.0169 0.71579,1.33746 1.57111,2.26523 1.90071,2.06171 0.32961,-0.20352 0.51125,21.18684 0.40364,47.53413 -0.12077,29.5718 0.16624,47.90416 0.75,47.90416 0.52011,0 0.94565,-0.70156 0.94565,-1.55902 0,-0.92379 0.4704,-1.26829 1.15451,-0.84549 0.67046,0.41437 0.88471,0.27699 0.51101,-0.32767 -0.35392,-0.57267 0.11293,-1.65469 1.03745,-2.40451 1.1561,-0.93764 1.44647,-0.97302 0.92997,-0.11331 -1.33256,2.21805 -0.10729,1.33821 3.42089,-2.45647 1.89539,-2.03855 2.54617,-3.09798 1.44617,-2.35428 -1.1,0.74371 -0.2,-0.27149 2,-2.25598 2.2,-1.9845 3.68399,-3.62507 3.29775,-3.64572 -0.38624,-0.0206 0.44753,-1.27505 1.85283,-2.78755 3.08629,-3.32173 6.50436,-9.76173 5.63991,-10.62618 -0.3431,-0.3431 -0.15912,-0.62382 0.40885,-0.62382 1.31316,0 5.61967,-11.67481 4.79733,-13.00539 -0.33809,-0.54704 -0.0857,-0.99461 0.56094,-0.99461 0.68332,0 0.95663,-0.83755 0.65264,-2 -0.28766,-1.1 -0.0807,-2 0.45999,-2 0.54065,0 0.84938,-1.55086 0.68607,-3.44636 -0.1633,-1.8955 0.0272,-3.7705 0.42339,-4.16667 0.86201,-0.86201 0.9756,-13.79834 0.12859,-14.64534 -0.32543,-0.32544 -0.75697,-2.98179 -0.95896,-5.90299 -0.20199,-2.92121 -0.83853,-5.46837 -1.41452,-5.66037 -0.576,-0.192 -0.78666,-0.77077 -0.46814,-1.28615 1.41003,-2.28147 -8.27886,-23.89212 -10.71175,-23.89212 -0.53513,0 -0.71387,-0.41921 -0.39721,-0.93158 0.31666,-0.51237 -0.27129,-1.52487 -1.30656,-2.25 -1.03527,-0.72513 -1.99746,-1.76842 -2.1382,-2.31842 -0.28389,-1.10944 -5.01295,-6.93478 -5.01295,-6.17504 0,0.26312 -2.72381,-2.22855 -6.0529,-5.53704 -3.3291,-3.3085 -6.32211,-5.74625 -6.65113,-5.41723 -0.32902,0.32902 -1.09271,-0.0342 -1.69709,-0.80708 -1.6189,-2.07034 -12.56726,-7.70119 -13.66032,-7.02564 -0.51621,0.31904 -0.93856,0.17901 -0.93856,-0.31117 0,-1.09125 -7.00349,-3.34268 -8.165,-2.62482 -0.45925,0.28383 -0.835,-0.013 -0.835,-0.65959 0,-0.68313 -0.83746,-0.95665 -1.999,-0.6529 -1.09946,0.28751 -2.27903,0.0697 -2.62128,-0.48411 -0.34226,-0.55378 -1.90026,-0.75127 -3.46223,-0.43888 -1.56197,0.3124 -3.10895,0.13273 -3.43773,-0.39925 -0.77578,-1.25524 -18.17754,-1.26526 -18.95277,-0.0109 -0.32507,0.52598 -1.25163,0.70283 -2.05902,0.39301 -0.80738,-0.30983 -2.25547,-0.23647 -3.21797,0.16301 -0.9625,0.39949 -3.08512,0.85299 -4.71693,1.00779 -1.63182,0.1548 -3.11589,0.72832 -3.29795,1.2745 -0.18206,0.54617 -1.27981,0.74493 -2.43944,0.44168 -1.42716,-0.37321 -1.87956,-0.18105 -1.40011,0.5947 0.4592,0.74301 0.16251,0.93663 -0.84363,0.55054 -0.85357,-0.32757 -1.55194,-0.19317 -1.55194,0.29863 0,0.4918 -0.85068,0.95826 -1.8904,1.03658 -6.18754,0.46609 -23.59286,14.02342 -31.81745,24.78321 -5.775,7.55511 -11.59125,18.20703 -10.71539,19.62421 0.2977,0.48168 0.0166,0.87579 -0.62473,0.87579 -0.6413,0 -0.91814,0.64593 -0.6152,1.43539 0.30295,0.78947 0.051,1.602 -0.55988,1.80563 -0.61088,0.20362 -1.1481,2.03137 -1.19382,4.06166 -0.0457,2.03029 -0.4717,3.69276 -0.94663,3.69438 -0.47492,0.002 -0.66536,1.35294 -0.42319,3.00294 0.24217,1.65 0.14324,3 -0.21984,3 -0.36307,0 -0.66014,6.05521 -0.66014,13.45601 0,7.4159 0.39206,13.21371 0.87342,12.91621 0.48038,-0.29689 0.59391,0.57381 0.2523,1.9349 -0.34161,1.36108 -0.1543,2.76319 0.41625,3.11581 0.57054,0.35262 0.80133,1.25619 0.51285,2.00794 -0.28847,0.75176 -0.0635,1.65176 0.5,2 0.56348,0.34825 0.77101,1.29377 0.46119,2.10116 -0.30983,0.80738 -0.0386,1.46797 0.60269,1.46797 0.6413,0 0.86862,0.48118 0.50514,1.06929 -0.7354,1.18992 6.40113,15.93071 7.71262,15.93071 0.89585,0 1.15259,-3.33503 0.92379,-12 -0.1459,-5.52553 1.96873,-13.60436 3.23064,-12.34245 0.37168,0.37168 0.67578,0.24076 0.67578,-0.29093 0,-1.3545 20.94636,-0.65602 22.64676,0.75518 1.06689,0.88544 1.35324,6.05989 1.35324,24.45359 0,22.40341 0.77923,29.29712 3.14623,27.83424 0.46957,-0.29022 0.85377,-0.0245 0.85377,0.59037 0,0.61492 0.45,0.83992 1,0.5 0.55,-0.33992 1,-0.18378 1,0.34698 0,0.84743 8.06597,4.15302 10.13378,4.15302 0.42762,0 0.80234,-17.2125 0.8327,-38.25 0.0507,-35.12918 0.1971,-38.35716 1.79436,-39.56338 1.26389,-0.95447 4.88182,-1.22775 13.23916,-1 l 11.5,0.31338 0.26109,40.59687 0.26109,40.59688 5.70988,-0.8954 c 3.14044,-0.49247 5.94795,-1.21106 6.23891,-1.59687 z M 335.73717,290.09678 c 0,-0.20765 0.7875,-0.99515 1.75,-1.75 1.58606,-1.24387 1.62143,-1.2085 0.37756,0.37756 -1.30637,1.66575 -2.12756,2.19548 -2.12756,1.37244 z m -11.87591,104.11089 c -0.98762,-0.98026 -1.10248,-0.8654 -0.5598,0.5598 0.37553,0.98622 0.93469,1.54122 1.24258,1.23333 0.30789,-0.30789 6.4e-4,-1.11479 -0.68278,-1.79313 z M 106.60961,372.72434 c -1.24387,-1.58606 -1.2085,-1.62143 0.37756,-0.37756 0.9625,0.75485 1.75,1.54235 1.75,1.75 0,0.82304 -0.82119,0.29331 -2.12756,-1.37244 z m 155.09784,-27.91667 c -0.0163,-1.55833 -0.12885,-33.20833 -0.25,-70.33333 -0.1921,-58.86617 -0.0284,-67.69186 1.27972,-69 2.23244,-2.23244 53.76238,-2.23582 56,-0.004 1.26474,1.26165 1.41073,4.24164 0.93085,19 -0.31303,9.62702 -0.65053,17.64273 -0.75,17.81269 -0.0995,0.16996 -0.60827,0.0448 -1.13068,-0.27801 -0.5224,-0.32287 -1.43584,0.3211 -2.02985,1.43103 -0.59402,1.10993 -1.4041,1.91666 -1.80018,1.79274 -1.32332,-0.41405 -7.15038,4.54908 -6.52636,5.55876 0.33838,0.54751 0.1467,0.7059 -0.42596,0.35198 -1.03218,-0.63792 -3.99821,2.09234 -3.51782,3.23817 0.1375,0.32797 -0.24558,0.59631 -0.8513,0.59631 -1.46781,0 -13.92383,15.65032 -13.28224,16.68843 0.27586,0.44636 0.0848,0.81157 -0.42456,0.81157 -1.9936,0 -13.65628,20.4396 -12.61969,22.11684 0.3002,0.48574 0.11182,0.88316 -0.41862,0.88316 -1.24572,0 -7.39217,16.93588 -6.75196,18.60426 0.26731,0.69659 0.0495,1.41202 -0.48396,1.58985 -0.53349,0.17783 -1.11501,1.93952 -1.29226,3.91486 -0.17725,1.97534 -0.6418,4.10853 -1.03232,4.74041 -0.39052,0.63188 -0.83845,3.77853 -0.9954,6.99256 -0.15695,3.21403 -0.61415,6.37567 -1.01599,7.02587 -0.40185,0.6502 -0.58931,2.82249 -0.41658,4.82732 0.19425,2.25462 -0.15882,3.80277 -0.92554,4.05834 -0.78769,0.26257 -1.25042,-0.61968 -1.2693,-2.42014 z m 230.08206,-72.25626 c -2.26978,-3.34239 -4.58665,-6.07707 -5.14862,-6.07707 -0.56196,0 -0.77882,-0.39307 -0.4819,-0.8735 0.59731,-0.96647 -15.38681,-18.49484 -16.1602,-17.72146 -0.26623,0.26623 -1.60003,-0.84219 -2.96399,-2.46317 -1.36396,-1.62098 -2.88891,-2.69447 -3.38878,-2.38554 -0.49987,0.30894 -0.90885,0.10137 -0.90885,-0.46126 0,-1.3665 -7.10814,-6.14627 -8.16705,-5.49183 -0.45812,0.28314 -0.83295,0.0458 -0.83295,-0.52738 0,-1.38249 -9.80435,-6.31481 -11.03749,-5.55269 -0.52938,0.32718 -0.96251,0.14863 -0.96251,-0.39677 0,-0.54539 -0.9,-1.27727 -2,-1.6264 -1.97231,-0.62599 -2,-1.51303 -2,-64.08096 0,-43.85468 0.33485,-63.98237 1.08438,-65.182606 0.99105,-1.586966 3.37248,-1.717792 27.66654,-1.519895 17.46856,0.142297 26.95361,0.587888 27.66562,1.299683 0.75401,0.753798 1.23549,28.053978 1.58346,89.783458 0.275,48.78518 0.42782,88.8475 0.3396,89.02739 -0.0882,0.17989 -2.01749,-2.40761 -4.28726,-5.75 z m -143.6803,-48.7309 c -0.3403,-1.35586 -0.38414,-4.54646 -0.0974,-7.09022 0.28672,-2.54377 0.13748,-7.34045 -0.33163,-10.6593 -0.46912,-3.31885 -0.49897,-6.2733 -0.0663,-6.56546 0.43263,-0.29215 0.74987,-8.89644 0.70497,-19.12062 -0.0631,-14.37774 0.22932,-18.96566 1.29081,-20.25 1.21629,-1.47163 4.40782,-1.66057 28.05,-1.66057 19.41588,0 27.0042,0.32664 27.87756,1.2 0.87944,0.87944 1.2,9.13033 1.2,30.8865 v 29.6865 l -3.04403,0.44677 c -1.67421,0.24572 -3.22525,0.15355 -3.44674,-0.20484 -0.63943,-1.03462 -26.50923,-0.939 -26.50923,0.098 0,0.50886 -1.09942,0.64926 -2.44316,0.312 -1.34375,-0.33726 -2.98588,-0.27778 -3.6492,0.13217 -0.66332,0.40996 -2.92961,0.90063 -5.03619,1.09038 -2.10658,0.18975 -6.09152,1.20425 -8.85542,2.25445 l -5.02527,1.90945 z"
       id="path8"
       inkscape:export-filename="logo-reviewed.png"
       inkscape:export-xdpi="96"
       inkscape:export-ydpi="96" />
    <path
       style="fill:#329590"
       d="m 136.21176,482.47434 c 0,-40.425 0.12376,-56.9625 0.27503,-36.75 0.15126,20.2125 0.15126,53.2875 0,73.5 -0.15127,20.2125 -0.27503,3.675 -0.27503,-36.75 z m 66.00555,-22 c 0,-52.525 0.12133,-74.0125 0.26963,-47.75 0.14829,26.2625 0.14829,69.2375 0,95.5 -0.1483,26.2625 -0.26963,4.775 -0.26963,-47.75 z m -42.03124,60.5 c 3.6e-4,-18.7 0.13526,-26.20869 0.29977,-16.68598 0.16451,9.52271 0.16421,24.82271 -6.6e-4,34 -0.16487,9.17729 -0.29947,1.38598 -0.29911,-17.31402 z m 65.80328,27 c 0.0111,-2.2 0.21589,-2.98225 0.45508,-1.73834 0.23919,1.24391 0.23011,3.04391 -0.0202,4 -0.25029,0.95609 -0.446,-0.0617 -0.4349,-2.26166 z m -0.0202,-15.5 c 0,-1.925 0.2058,-2.7125 0.45733,-1.75 0.25152,0.9625 0.25152,2.5375 0,3.5 -0.25153,0.9625 -0.45733,0.175 -0.45733,-1.75 z m -0.0741,-7 c 0,-1.375 0.22698,-1.9375 0.50439,-1.25 0.27741,0.6875 0.27741,1.8125 0,2.5 -0.27741,0.6875 -0.50439,0.125 -0.50439,-1.25 z m 0,-8 c 0,-1.375 0.22698,-1.9375 0.50439,-1.25 0.27741,0.6875 0.27741,1.8125 0,2.5 -0.27741,0.6875 -0.50439,0.125 -0.50439,-1.25 z m 282.0921,-26.68933 c 0.9625,-0.25152 2.5375,-0.25152 3.5,0 0.9625,0.25153 0.175,0.45733 -1.75,0.45733 -1.925,0 -2.7125,-0.2058 -1.75,-0.45733 z m -7.25,-2.40002 c -1.66051,-1.35822 -1.82841,-1.69779 -0.5,-1.01125 3.26177,1.68572 5.07007,3.07046 4,3.06305 -0.55,-0.004 -2.125,-0.92712 -3.5,-2.0518 z m 13,1.69634 c 0,-0.21616 0.69837,-0.661 1.55194,-0.98855 0.88992,-0.34149 1.29132,-0.17385 0.94098,0.39301 -0.58726,0.95021 -2.49292,1.40545 -2.49292,0.59554 z m 5.5,-3.60699 c 0.99549,-1.1 2.03498,-2 2.30998,-2 0.275,0 -0.31449,0.9 -1.30998,2 -0.99549,1.1 -2.03498,2 -2.30998,2 -0.275,0 0.31449,-0.9 1.30998,-2 z m -359.15719,-21.5 c 0.004,-4.4 0.17944,-6.07561 0.39069,-3.72357 0.21124,2.35204 0.20827,5.95204 -0.007,8 -0.21487,2.04796 -0.38771,0.12357 -0.38408,-4.27643 z m 363.3884,4.58016 c -0.43497,-1.66335 -0.30483,-2.05378 0.43724,-1.31171 0.5811,0.5811 0.85979,1.64682 0.61931,2.36826 -0.24965,0.74895 -0.70294,0.29565 -1.05655,-1.05655 z m -47.76537,-7.83016 -5.46584,-5.75 5.75,5.46584 c 3.1625,3.00621 5.75,5.59371 5.75,5.75 0,0.74225 -0.95622,-0.12391 -6.03416,-5.46584 z m 44.03416,1.45955 c -2.76692,-3.35005 -4.30301,-5.70955 -3.71705,-5.70955 0.63242,0 6.94592,8.10835 6.56744,8.4345 -0.19272,0.16606 -1.47539,-1.06016 -2.85039,-2.72495 z m -52.39405,-10.55749 -1.89405,-2.65206 2.3385,2.22222 c 1.28617,1.22222 2.13849,2.41565 1.89404,2.65206 -0.24444,0.23641 -1.29676,-0.76359 -2.33849,-2.22222 z m -82.81676,1.10653 c 3.45905,-0.19583 8.85905,-0.19422 12,0.004 3.14094,0.19781 0.31081,0.35803 -6.28919,0.35606 -6.6,-0.002 -9.16987,-0.16382 -5.71081,-0.35965 z m -13.52016,-0.95158 c 0.97297,-0.25354 2.32297,-0.23687 3,0.0371 0.67703,0.27393 -0.11903,0.48137 -1.76903,0.46099 -1.65,-0.0204 -2.20394,-0.2445 -1.23097,-0.49804 z m 35.48097,0.0307 c 0.6875,-0.27741 1.8125,-0.27741 2.5,0 0.6875,0.27741 0.125,0.50439 -1.25,0.50439 -1.375,0 -1.9375,-0.22698 -1.25,-0.50439 z m -39.9375,-1.02083 c 0.72187,-0.28887 1.58438,-0.25335 1.91667,0.0789 0.33229,0.33229 -0.25834,0.56864 -1.3125,0.52522 -1.16495,-0.048 -1.4019,-0.28494 -0.60417,-0.60416 z m 50,-1 c 0.72187,-0.28887 1.58438,-0.25335 1.91667,0.0789 0.33229,0.33229 -0.25834,0.56864 -1.3125,0.52522 -1.16495,-0.048 -1.4019,-0.28494 -0.60417,-0.60416 z m 7.92083,-2.44098 c 0.67834,-0.68342 1.48524,-0.99067 1.79313,-0.68278 0.30789,0.30789 -0.24711,0.86705 -1.23333,1.24258 -1.4252,0.54268 -1.54006,0.42782 -0.5598,-0.5598 z m -264.34479,-12.3759 c 0.002,-7.15 0.16103,-9.94379 0.35396,-6.20841 0.19293,3.73537 0.19149,9.58537 -0.003,13 -0.19468,3.41462 -0.35253,0.35841 -0.35078,-6.79159 z m 189.11854,10.51145 c -0.35034,-0.56686 0.0511,-0.7345 0.94098,-0.39301 1.73242,0.66479 2.04939,1.38156 0.61096,1.38156 -0.51754,0 -1.21592,-0.44485 -1.55194,-0.98855 z m 144.45213,-10.76145 c -9.86714,-10.0733 -21.40884,-22.64665 -15.37564,-16.75 5.92895,5.79477 27.69496,28.5 27.32107,28.5 -0.23975,0 -5.61519,-5.2875 -11.94543,-11.75 z m -60.87588,9.37718 c 1.02905,-0.92077 6.91667,-3.62641 6.91667,-3.17854 0,0.57598 -5.54382,3.55136 -6.61701,3.55136 -0.39398,0 -0.52882,-0.16777 -0.29966,-0.37282 z m -96.6422,-5.18235 c -1.86402,-1.49339 -1.85176,-1.51185 0.30887,-0.46481 1.2375,0.59969 2.25,1.29951 2.25,1.55516 0,0.76522 -0.51861,0.54424 -2.55887,-1.09035 z m 105.2922,0.43108 c 0.67834,-0.68342 1.48524,-0.99067 1.79313,-0.68278 0.30789,0.30789 -0.24711,0.86705 -1.23333,1.24258 -1.4252,0.54268 -1.54006,0.42782 -0.5598,-0.5598 z m 12.21284,-2.62591 -3.44617,-3.75 3.75,3.44617 c 2.0625,1.89539 3.75,3.58289 3.75,3.75 0,0.76362 -0.84622,0.0442 -4.05383,-3.44617 z m -8.21284,0.62591 c 0.67834,-0.68342 1.48524,-0.99067 1.79313,-0.68278 0.30789,0.30789 -0.24711,0.86705 -1.23333,1.24258 -1.4252,0.54268 -1.54006,0.42782 -0.5598,-0.5598 z m -117.17446,-3.40771 c -1.06762,-0.80751 -1.46022,-1.4682 -0.87244,-1.4682 0.58777,0 1.62888,0.675 2.31357,1.5 1.5572,1.87632 1.06734,1.86551 -1.44113,-0.0318 z m 67.89684,-44.9682 c 2.7e-4,-22 0.13226,-30.85753 0.29331,-19.6834 0.16105,11.17413 0.16083,29.17413 -4.9e-4,40 -0.16132,10.82587 -0.29309,1.6834 -0.29282,-20.3166 z m 4.29429,37.83772 c 0.6875,-0.27741 1.8125,-0.27741 2.5,0 0.6875,0.27741 0.125,0.50439 -1.25,0.50439 -1.375,0 -1.9375,-0.22698 -1.25,-0.50439 z m -82.87756,-2.08772 c -1.24387,-1.58606 -1.2085,-1.62143 0.37756,-0.37756 1.66575,1.30637 2.19548,2.12756 1.37244,2.12756 -0.20765,0 -0.99515,-0.7875 -1.75,-1.75 z m 48.12756,0.35699 c 0,-0.21616 0.675,-0.65203 1.5,-0.96862 0.825,-0.31658 1.5,-0.13972 1.5,0.39301 0,0.53274 -0.675,0.96862 -1.5,0.96862 -0.825,0 -1.5,-0.17686 -1.5,-0.39301 z m -7,-2.60699 c -0.825,-0.53316 -1.05,-0.96937 -0.5,-0.96937 0.55,0 1.675,0.43621 2.5,0.96937 0.825,0.53316 1.05,0.96937 0.5,0.96937 -0.55,0 -1.675,-0.43621 -2.5,-0.96937 z m 9.45255,-36.5 c 3.1e-4,-20.35 0.13365,-28.53307 0.29631,-18.1846 0.16266,10.34848 0.16241,26.99848 -5.6e-4,37 -0.16297,10.00153 -0.29606,1.5346 -0.29575,-18.8154 z m -56.52824,32.75 -2.42431,-2.75 2.75,2.42431 c 2.57029,2.26589 3.20859,3.07569 2.42431,3.07569 -0.17912,0 -1.41662,-1.2375 -2.75,-2.75 z m 40.50694,-25.75 c 6.6e-4,-13.2 0.14295,-18.46169 0.31621,-11.69265 0.17326,6.76904 0.17273,17.56904 -10e-4,24 -0.17391,6.43096 -0.31567,0.89265 -0.31502,-12.30735 z m 121.57491,21.72856 c -0.006,-1.3319 4.90661,-9.22856 5.74174,-9.22856 0.26516,0 -0.32923,1.2375 -1.32089,2.75 -0.99165,1.5125 -2.39063,3.875 -3.10884,5.25 -0.71822,1.375 -1.30862,1.92785 -1.31201,1.22856 z m -168.60117,-3.47856 -1.90499,-2.25 2.25,1.90499 c 1.2375,1.04774 2.25,2.06024 2.25,2.25 0,0.80025 -0.80479,0.20945 -2.59501,-1.90499 z m -145.32604,-3.33333 c 0.048,-1.16495 0.28494,-1.4019 0.60416,-0.60417 0.28887,0.72187 0.25335,1.58438 -0.0789,1.91667 -0.3323,0.33229 -0.56864,-0.25834 -0.52522,-1.3125 z m 279.9206,-47.11722 c -0.27475,-25.4103 -0.15741,-45.85815 0.26077,-45.43968 0.41818,0.41848 0.64298,21.20873 0.49955,46.20055 l -0.26076,45.43968 z m 5.00045,45.32299 c 0,-0.20765 0.7875,-0.99515 1.75,-1.75 1.58606,-1.24387 1.62143,-1.2085 0.37756,0.37756 -1.30637,1.66575 -2.12756,2.19548 -2.12756,1.37244 z m 4,-4 c 0,-0.20765 0.7875,-0.99515 1.75,-1.75 1.58606,-1.24387 1.62143,-1.2085 0.37756,0.37756 -1.30637,1.66575 -2.12756,2.19548 -2.12756,1.37244 z m 34.6954,-4.10988 c 0.91468,-1.9181 1.84058,-3.30991 2.05756,-3.09293 0.45746,0.45746 -2.5782,6.58037 -3.26246,6.58037 -0.25198,0 0.29023,-1.56935 1.2049,-3.48744 z m -350.6954,0.48744 c -0.5887,-1.1 -0.84537,-2 -0.57037,-2 0.275,0 0.98167,0.9 1.57037,2 0.5887,1.1 0.84537,2 0.57037,2 -0.275,0 -0.98167,-0.9 -1.57037,-2 z m 161.64589,-4.85427 c -1.45524,-3.2427 -2.62524,-6.28955 -2.6,-6.77078 0.0252,-0.48122 1.37957,2.00822 3.00962,5.5321 1.63005,3.52388 2.80005,6.57073 2.6,6.77078 -0.20005,0.20005 -1.55438,-2.28939 -3.00962,-5.5321 z m 28.9184,0.1474 c -0.54268,-1.4252 -0.42782,-1.54006 0.5598,-0.5598 0.68342,0.67834 0.99067,1.48524 0.68278,1.79313 -0.30789,0.30789 -0.86705,-0.24711 -1.24258,-1.23333 z m 136.46634,-5.79313 c 0,-0.55 0.43621,-1.675 0.96937,-2.5 0.53316,-0.825 0.96937,-1.05 0.96937,-0.5 0,0.55 -0.43621,1.675 -0.96937,2.5 -0.53316,0.825 -0.96937,1.05 -0.96937,0.5 z M 110.23717,375.73721 c -7.15,-6.94907 -12.105193,-11.98851 -11.01154,-11.19877 2.48111,1.79165 25.19545,23.90601 24.51154,23.86409 -0.275,-0.0169 -6.35,-5.71626 -13.5,-12.66532 z m 115.65789,9.73713 c 0,-1.375 0.22698,-1.9375 0.50439,-1.25 0.27741,0.6875 0.27741,1.8125 0,2.5 -0.27741,0.6875 -0.50439,0.125 -0.50439,-1.25 z m 90.84211,-3 c -0.5887,-1.1 -0.84537,-2 -0.57037,-2 0.275,0 0.98167,0.9 1.57037,2 0.5887,1.1 0.84537,2 0.57037,2 -0.275,0 -0.98167,-0.9 -1.57037,-2 z m 174,-0.94098 c 0,-0.51754 0.44485,-1.21592 0.98855,-1.55194 0.56686,-0.35034 0.7345,0.0511 0.39301,0.94098 -0.66479,1.73242 -1.38156,2.04939 -1.38156,0.61096 z m -26.96937,-0.55902 c 0,-0.55 0.43621,-1.675 0.96937,-2.5 0.53316,-0.825 0.96937,-1.05 0.96937,-0.5 0,0.55 -0.43621,1.675 -0.96937,2.5 -0.53316,0.825 -0.96937,1.05 -0.96937,0.5 z m -315.15819,-2.25 c -1.24387,-1.58606 -1.2085,-1.62143 0.37756,-0.37756 0.9625,0.75485 1.75,1.54235 1.75,1.75 0,0.82304 -0.82119,0.29331 -2.12756,-1.37244 z m 166.58644,-0.31653 c -0.36253,-0.58659 -0.44468,-1.281 -0.18255,-1.54313 0.26212,-0.26213 0.74306,0.21781 1.06875,1.06653 0.67618,1.76211 0.0999,2.07206 -0.8862,0.4766 z m 151.54112,-5.87445 c 0,-0.51754 0.44485,-1.21592 0.98855,-1.55194 0.56686,-0.35034 0.7345,0.0511 0.39301,0.94098 -0.66479,1.73242 -1.38156,2.04939 -1.38156,0.61096 z m -329.05383,-4.80902 -3.44617,-3.75 3.75,3.44617 c 2.0625,1.89539 3.75,3.58289 3.75,3.75 0,0.76362 -0.84622,0.0442 -4.05383,-3.44617 z m 174.13278,-1.83333 c 0.048,-1.16495 0.28494,-1.4019 0.60416,-0.60417 0.28887,0.72187 0.25335,1.58438 -0.0789,1.91667 -0.33229,0.33229 -0.56864,-0.25834 -0.52522,-1.3125 z m 18.19008,0.89034 c 0.97297,-0.25354 2.32297,-0.23687 3,0.0371 0.67703,0.27393 -0.11903,0.48137 -1.76903,0.46099 -1.65,-0.0204 -2.20394,-0.2445 -1.23097,-0.49804 z m 10.98097,-0.0233 c 1.5125,-0.22913 3.9875,-0.22913 5.5,0 1.5125,0.22912 0.275,0.41659 -2.75,0.41659 -3.025,0 -4.2625,-0.18747 -2.75,-0.41659 z m -55.17105,-4.86708 c 0.048,-1.16495 0.28494,-1.4019 0.60416,-0.60417 0.28887,0.72187 0.25335,1.58438 -0.0789,1.91667 -0.33229,0.33229 -0.56864,-0.25834 -0.52522,-1.3125 z m 25,0 c 0.048,-1.16495 0.28494,-1.4019 0.60416,-0.60417 0.28887,0.72187 0.25335,1.58438 -0.0789,1.91667 -0.33229,0.33229 -0.56864,-0.25834 -0.52522,-1.3125 z m -219.641859,-4.66663 -2.937091,-3.25 3.25,2.93709 c 1.7875,1.6154 3.25,3.0779 3.25,3.25 0,0.77256 -0.825128,0.0924 -3.562909,-2.93709 z m 26.513129,-8.53352 -11.45022,-11.71639 11.4672,10.99995 c 6.30696,6.04998 11.66946,11.11246 11.91666,11.24996 0.24721,0.1375 0.23957,0.4599 -0.017,0.71644 -0.25654,0.25654 -5.61904,-4.80594 -11.91667,-11.24996 z m 167.38599,0.78352 c 0,-4.125 0.17651,-5.8125 0.39226,-3.75 0.21574,2.0625 0.21574,5.4375 0,7.5 -0.21575,2.0625 -0.39226,0.375 -0.39226,-3.75 z m -92.29479,-0.46326 -5.45858,-6.03674 5.91148,5.71377 c 3.25131,3.14257 5.70767,5.8591 5.45858,6.03673 -0.2491,0.17764 -2.90926,-2.39356 -5.91148,-5.71376 z m 278.19058,3.46326 c 0,-1.925 0.2058,-2.7125 0.45733,-1.75 0.25152,0.9625 0.25152,2.5375 0,3.5 -0.25153,0.9625 -0.45733,0.175 -0.45733,-1.75 z m 25.10421,-6 c 0,-4.125 0.17651,-5.8125 0.39226,-3.75 0.21574,2.0625 0.21574,5.4375 0,7.5 -0.21575,2.0625 -0.39226,0.375 -0.39226,-3.75 z m -126.60288,1.87591 c 0.67834,-0.68342 1.48524,-0.99067 1.79313,-0.68278 0.30789,0.30789 -0.24711,0.86705 -1.23333,1.24258 -1.4252,0.54268 -1.54006,0.42782 -0.5598,-0.5598 z m -147.27445,-1.94244 c -0.36253,-0.58659 -0.44468,-1.281 -0.18255,-1.54313 0.26212,-0.26213 0.74306,0.21781 1.06875,1.06653 0.67618,1.76211 0.0999,2.07206 -0.8862,0.4766 z m 38.73607,-1.43347 c 0.0204,-1.65 0.2445,-2.20394 0.49804,-1.23097 0.25354,0.97297 0.23687,2.32297 -0.0371,3 -0.27393,0.67703 -0.48137,-0.11903 -0.46099,-1.76903 z m 115.05505,1.77153 c 2.0625,-0.21574 5.4375,-0.21574 7.5,0 2.0625,0.21575 0.375,0.39226 -3.75,0.39226 -4.125,0 -5.8125,-0.17651 -3.75,-0.39226 z m 94.94495,-2.77153 c 0.0204,-1.65 0.2445,-2.20394 0.49804,-1.23097 0.25354,0.97297 0.23687,2.32297 -0.0371,3 -0.27393,0.67703 -0.48137,-0.11903 -0.46099,-1.76903 z m -206.94277,-2 c 0.0111,-2.2 0.21589,-2.98225 0.45508,-1.73834 0.23919,1.24391 0.23011,3.04391 -0.0202,4 -0.25029,0.95609 -0.446,-0.0617 -0.4349,-2.26166 z m 46.90571,1.5 c 0,-1.375 0.22698,-1.9375 0.50439,-1.25 0.27741,0.6875 0.27741,1.8125 0,2.5 -0.27741,0.6875 -0.50439,0.125 -0.50439,-1.25 z m -132.18678,-8.75 -6.47111,-6.75 6.75,6.47111 c 6.26969,6.01065 7.20713,7.02889 6.47111,7.02889 -0.15339,0 -3.19089,-3.0375 -6.75,-6.75 z m 82.10784,3.16667 c 0.048,-1.16495 0.28494,-1.4019 0.60416,-0.60417 0.28887,0.72187 0.25335,1.58438 -0.0789,1.91667 -0.33229,0.33229 -0.56864,-0.25834 -0.52522,-1.3125 z m 50,0 c 0.048,-1.16495 0.28494,-1.4019 0.60416,-0.60417 0.28887,0.72187 0.25335,1.58438 -0.0789,1.91667 -0.33229,0.33229 -0.56864,-0.25834 -0.52522,-1.3125 z m 159,0 c 0.048,-1.16495 0.28494,-1.4019 0.60416,-0.60417 0.28887,0.72187 0.25335,1.58438 -0.0789,1.91667 -0.33229,0.33229 -0.56864,-0.25834 -0.52522,-1.3125 z m -391.733873,-0.9598 c -0.325685,-0.84872 -0.368713,-1.76657 -0.09562,-2.03966 0.273094,-0.2731 0.736558,0.42131 1.029919,1.54313 0.62315,2.38293 -0.06922,2.75089 -0.934299,0.49653 z m 25.933063,-2.70687 c -1.49918,-1.93844 -2.44224,-3.75 -1.95217,-3.75 0.24421,0 1.18114,1.125 2.08207,2.5 1.68584,2.57291 1.59195,3.47635 -0.1299,1.25 z m 157.19316,-62.75 c 0,-35.475 0.1252,-49.9875 0.27821,-32.25 0.15301,17.7375 0.15301,46.7625 0,64.5 -0.15301,17.7375 -0.27821,3.225 -0.27821,-32.25 z m 3.72365,61.5 c 0.0204,-1.65 0.2445,-2.20394 0.49804,-1.23097 0.25354,0.97297 0.23687,2.32297 -0.0371,3 -0.27393,0.67703 -0.48137,-0.11903 -0.46099,-1.76903 z m -52.78996,-0.75 -1.90499,-2.25 2.25,1.90499 c 2.11444,1.79022 2.70524,2.59501 1.90499,2.59501 -0.18976,0 -1.20226,-1.0125 -2.25,-2.25 z m 283.21855,-0.28866 c -0.96498,-2.51469 -0.68031,-3.16355 0.49853,-1.13634 0.58369,1.00375 0.8506,2.03566 0.59313,2.29313 -0.25747,0.25747 -0.74872,-0.26309 -1.09166,-1.15679 z m -26.54459,-1.04467 c 0.048,-1.16495 0.28494,-1.4019 0.60416,-0.60417 0.28887,0.72187 0.25335,1.58438 -0.0789,1.91667 -0.33229,0.33229 -0.56864,-0.25834 -0.52522,-1.3125 z M 77.150347,312.97434 c 0.001,-9.9 0.150701,-13.81474 0.33256,-8.69942 0.181859,5.11532 0.181001,13.21532 -0.0019,18 -0.182915,4.78468 -0.331708,0.59942 -0.33066,-9.30058 z m 130.459263,15.75 c -1.24387,-1.58606 -1.2085,-1.62143 0.37756,-0.37756 1.66575,1.30637 2.19548,2.12756 1.37244,2.12756 -0.20765,0 -0.99515,-0.7875 -1.75,-1.75 z m 105.12756,-1.19098 c 0,-1.06754 0.38499,-2.17893 0.85554,-2.46974 0.47055,-0.29082 0.64309,0.58263 0.38343,1.94098 -0.56402,2.95046 -1.23897,3.23851 -1.23897,0.52876 z m -211.92105,-0.64235 c 0.048,-1.16495 0.28494,-1.4019 0.60416,-0.60417 0.28887,0.72187 0.25335,1.58438 -0.0789,1.91667 -0.3323,0.33229 -0.56864,-0.25834 -0.52522,-1.3125 z m 165,-1 c 0.048,-1.16495 0.28494,-1.4019 0.60416,-0.60417 0.28887,0.72187 0.25335,1.58438 -0.0789,1.91667 -0.33229,0.33229 -0.56864,-0.25834 -0.52522,-1.3125 z m -67.10784,-6.16667 -6.47111,-6.75 6.75,6.47111 c 6.26969,6.01065 7.20713,7.02889 6.47111,7.02889 -0.15339,0 -3.19089,-3.0375 -6.75,-6.75 z m -31.83189,3.71673 c -1.29844,-1.0817 -1.93068,-1.96673 -1.40499,-1.96673 0.52569,0 1.77028,0.9 2.76577,2 2.28688,2.52697 1.69506,2.5125 -1.36078,-0.0333 z m 120.42507,-1.25986 c 0.37553,-0.98622 0.93469,-1.54122 1.24258,-1.23333 0.30789,0.30789 6.4e-4,1.11479 -0.68278,1.79313 -0.98762,0.98026 -1.10248,0.8654 -0.5598,-0.5598 z m -20.48534,-1.2902 c 0.048,-1.16495 0.28494,-1.4019 0.60416,-0.60417 0.28887,0.72187 0.25335,1.58438 -0.0789,1.91667 -0.33229,0.33229 -0.56864,-0.25834 -0.52522,-1.3125 z M 100.17287,295.97434 c 5.8e-4,-14.3 0.14102,-20.01094 0.31211,-12.69097 0.17108,7.31996 0.17062,19.01996 -10e-4,26 -0.1717,6.98003 -0.31168,0.99097 -0.31111,-13.30903 z m 365.12859,23.79313 c -0.54268,-1.4252 -0.42782,-1.54006 0.5598,-0.5598 0.68342,0.67834 0.99067,1.48524 0.68278,1.79313 -0.30789,0.30789 -0.86705,-0.24711 -1.24258,-1.23333 z m -53.48534,-1.87646 c 0.048,-1.16495 0.28494,-1.4019 0.60416,-0.60417 0.28887,0.72187 0.25335,1.58438 -0.0789,1.91667 -0.33229,0.33229 -0.56864,-0.25834 -0.52522,-1.3125 z m -252.67396,-1.66667 -1.90499,-2.25 2.25,1.90499 c 2.11444,1.79022 2.70524,2.59501 1.90499,2.59501 -0.18976,0 -1.20226,-1.0125 -2.25,-2.25 z m 333.05389,0.18347 c -0.36253,-0.58659 -0.44468,-1.281 -0.18255,-1.54313 0.26212,-0.26213 0.74306,0.21781 1.06875,1.06653 0.67618,1.76211 0.0999,2.07206 -0.8862,0.4766 z m -174.37859,-2.93347 c 1.45781,-3.06103 1.91971,-3.62834 1.91971,-2.3578 0,0.53655 -0.69982,1.84905 -1.55517,2.91667 -1.46637,1.83031 -1.48719,1.7984 -0.36454,-0.55887 z m 94.91971,1.62244 c 0,-0.20765 0.7875,-0.99515 1.75,-1.75 1.58606,-1.24387 1.62143,-1.2085 0.37756,0.37756 -1.30637,1.66575 -2.12756,2.19548 -2.12756,1.37244 z m -143.56991,-3.12244 c 0.39129,-1.65 1.14182,-3.43973 1.66785,-3.97717 0.52602,-0.53745 0.42737,0.58755 -0.21922,2.5 -1.51392,4.47773 -2.36633,5.34694 -1.44863,1.47717 z m -80.993,-2.75 -2.93709,-3.25 3.25,2.93709 c 3.02946,2.73778 3.70965,3.56291 2.93709,3.56291 -0.1721,0 -1.6346,-1.4625 -3.25,-3.25 z m 232.37541,2.56689 c 0.72187,-0.28887 1.58438,-0.25335 1.91667,0.0789 0.33229,0.33229 -0.25834,0.56864 -1.3125,0.52522 -1.16495,-0.048 -1.4019,-0.28494 -0.60417,-0.60416 z m 5.9375,-0.0403 c 1.7875,-0.22182 4.7125,-0.22182 6.5,0 1.7875,0.22183 0.325,0.40333 -3.25,0.40333 -3.575,0 -5.0375,-0.1815 -3.25,-0.40333 z m -273.87756,-2.02659 c -1.24387,-1.58606 -1.2085,-1.62143 0.37756,-0.37756 0.9625,0.75485 1.75,1.54235 1.75,1.75 0,0.82304 -0.82119,0.29331 -2.12756,-1.37244 z m 168.22795,-1.95452 c 0.72815,-1.21249 1.53915,-1.98927 1.80223,-1.72619 0.26308,0.26308 -0.33267,1.25511 -1.3239,2.20452 -1.72194,1.64929 -1.74325,1.62798 -0.47833,-0.47833 z m -29.01656,0.20452 c 0,-0.55 0.86228,-2.575 1.91617,-4.5 1.05389,-1.925 1.91617,-3.05 1.91617,-2.5 0,0.55 -0.86228,2.575 -1.91617,4.5 -1.05389,1.925 -1.91617,3.05 -1.91617,2.5 z m -19.51954,-5.79313 c 0.37553,-0.98622 0.93469,-1.54122 1.24258,-1.23333 0.30789,0.30789 6.4e-4,1.11479 -0.68278,1.79313 -0.98762,0.98026 -1.10248,0.8654 -0.5598,-0.5598 z m 183.30815,-0.45687 c -1.24387,-1.58606 -1.2085,-1.62143 0.37756,-0.37756 0.9625,0.75485 1.75,1.54235 1.75,1.75 0,0.82304 -0.82119,0.29331 -2.12756,-1.37244 z m -277,-2 c -1.24387,-1.58606 -1.2085,-1.62143 0.37756,-0.37756 0.9625,0.75485 1.75,1.54235 1.75,1.75 0,0.82304 -0.82119,0.29331 -2.12756,-1.37244 z m 147.12756,0.80902 c 0,-0.51754 0.44485,-1.21592 0.98855,-1.55194 0.56686,-0.35034 0.7345,0.0511 0.39301,0.94098 -0.66479,1.73242 -1.38156,2.04939 -1.38156,0.61096 z m -181,-2.05902 c -0.5887,-1.1 -0.84537,-2 -0.57037,-2 0.275,0 0.98167,0.9 1.57037,2 0.5887,1.1 0.84537,2 0.57037,2 -0.275,0 -0.98167,-0.9 -1.57037,-2 z m 129.03063,0.5 c 0,-0.55 0.43621,-1.675 0.96937,-2.5 0.53316,-0.825 0.96937,-1.05 0.96937,-0.5 0,0.55 -0.43621,1.675 -0.96937,2.5 -0.53316,0.825 -0.96937,1.05 -0.96937,0.5 z m 55.87377,-3.15724 c 1.1541,-2.33404 13.05704,-13.33089 14.43727,-13.33827 0.46292,-0.002 -1.63799,2.01542 -4.66867,4.4842 -3.03069,2.46878 -6.70845,5.95628 -8.17281,7.75 -1.46436,1.79372 -2.18246,2.29055 -1.59579,1.10407 z m -186.44552,-1.40929 c -0.36253,-0.58659 -0.44468,-1.281 -0.18255,-1.54313 0.26212,-0.26213 0.74306,0.21781 1.06875,1.06653 0.67618,1.76211 0.0999,2.07206 -0.8862,0.4766 z m 155.10541,-0.2266 c 0.37553,-0.98622 0.93469,-1.54122 1.24258,-1.23333 0.30789,0.30789 6.4e-4,1.11479 -0.68278,1.79313 -0.98762,0.98026 -1.10248,0.8654 -0.5598,-0.5598 z m 184,-0.41374 c -0.54268,-1.4252 -0.42782,-1.54006 0.5598,-0.5598 0.68342,0.67834 0.99067,1.48524 0.68278,1.79313 -0.30789,0.30789 -0.86705,-0.24711 -1.24258,-1.23333 z m -312.69185,-3.04313 c -1.24387,-1.58606 -1.2085,-1.62143 0.37756,-0.37756 0.9625,0.75485 1.75,1.54235 1.75,1.75 0,0.82304 -0.82119,0.29331 -2.12756,-1.37244 z m 107.12756,1.1078 c 0,-0.53655 0.69982,-1.84905 1.55517,-2.91667 1.46637,-1.83031 1.48719,-1.7984 0.36454,0.55887 -1.45781,3.06103 -1.91971,3.62834 -1.91971,2.3578 z m 164.76469,-4.88486 c -2.05443,-1.91012 -3.3802,-3.47294 -2.94617,-3.47294 0.43403,0 2.3157,1.575 4.18148,3.5 4.3532,4.49137 3.60688,4.47502 -1.23531,-0.0271 z m -161.76469,-1.41392 c 0,-0.51754 0.44485,-1.21592 0.98855,-1.55194 0.56686,-0.35034 0.7345,0.0511 0.39301,0.94098 -0.66479,1.73242 -1.38156,2.04939 -1.38156,0.61096 z m 24,-0.059 c 0,-0.55 0.47656,-1 1.05902,-1 0.58246,0 0.7809,0.45 0.44098,1 -0.33992,0.55 -0.81648,1 -1.05902,1 -0.24254,0 -0.44098,-0.45 -0.44098,-1 z m -162.92105,-1.58333 c 0.048,-1.16495 0.28494,-1.4019 0.60416,-0.60417 0.28887,0.72187 0.25335,1.58438 -0.0789,1.91667 -0.3323,0.33229 -0.56864,-0.25834 -0.52522,-1.3125 z m 334.79349,-0.16667 c -1.24387,-1.58606 -1.2085,-1.62143 0.37756,-0.37756 0.9625,0.75485 1.75,1.54235 1.75,1.75 0,0.82304 -0.82119,0.29331 -2.12756,-1.37244 z m -192.87244,-3.25 c 0.5887,-1.1 1.29537,-2 1.57037,-2 0.275,0 0.0183,0.9 -0.57037,2 -0.5887,1.1 -1.29537,2 -1.57037,2 -0.275,0 -0.0183,-0.9 0.57037,-2 z m 149.44113,-0.55517 c -1.86402,-1.49339 -1.85176,-1.51185 0.30887,-0.46481 1.2375,0.59969 2.25,1.29951 2.25,1.55516 0,0.76522 -0.51861,0.54424 -2.55887,-1.09035 z m 36.4097,-4.69483 c -2.94088,-3.4375 -4.54655,-5.6209 -3.56814,-4.85199 2.12203,1.66765 10.118,11.10199 9.40937,11.10199 -0.27179,0 -2.90035,-2.8125 -5.84123,-6.25 z m -302.65588,2.75 c 0.0204,-1.65 0.2445,-2.20394 0.49804,-1.23097 0.25354,0.97297 0.23687,2.32297 -0.0371,3 -0.27393,0.67703 -0.48137,-0.11903 -0.46099,-1.76903 z m 260.80505,-1 c -1.375,-0.78602 -2.02351,-1.44508 -1.44113,-1.46456 0.58238,-0.0195 1.93238,0.62525 3,1.43276 2.46898,1.86744 1.68038,1.88353 -1.55887,0.0318 z m -116,0.12244 c 0,-0.20765 0.7875,-0.99515 1.75,-1.75 1.58606,-1.24387 1.62143,-1.2085 0.37756,0.37756 -1.30637,1.66575 -2.12756,2.19548 -2.12756,1.37244 z m 44,-1.62244 c 0.825,-0.53316 1.95,-0.96937 2.5,-0.96937 0.55,0 0.325,0.43621 -0.5,0.96937 -0.825,0.53316 -1.95,0.96937 -2.5,0.96937 -0.55,0 -0.325,-0.43621 0.5,-0.96937 z m 137.56429,-0.70687 c -0.54268,-1.4252 -0.42782,-1.54006 0.5598,-0.5598 0.68342,0.67834 0.99067,1.48524 0.68278,1.79313 -0.30789,0.30789 -0.86705,-0.24711 -1.24258,-1.23333 z m 3.66771,-1.29313 c 0,-1.925 0.2058,-2.7125 0.45733,-1.75 0.25152,0.9625 0.25152,2.5375 0,3.5 -0.25153,0.9625 -0.45733,0.175 -0.45733,-1.75 z m -74.232,1 c -0.90129,-0.58246 -1.02463,-0.97549 -0.30902,-0.98469 0.65504,-0.008 1.4691,0.43469 1.80902,0.98469 0.7673,1.24153 0.42112,1.24153 -1.5,0 z m -60,-2 c 0.825,-0.53316 2.175,-0.94464 3,-0.9144 0.98906,0.0362 0.81874,0.34772 -0.5,0.9144 -2.74909,1.18132 -4.32797,1.18132 -2.5,0 z m -45.5,-2 c 0.99549,-1.1 2.03498,-2 2.30998,-2 0.275,0 -0.31449,0.9 -1.30998,2 -0.99549,1.1 -2.03498,2 -2.30998,2 -0.275,0 0.31449,-0.9 1.30998,-2 z m -25.98872,-1.37688 c 0.94531,-1.44271 1.90782,-2.62312 2.13891,-2.62312 0.72338,0 -1.6049,3.85397 -2.75929,4.56743 -0.6041,0.37335 -0.32492,-0.50159 0.62038,-1.94431 z m 79.25717,1.20843 c 0.5811,-0.5811 1.64682,-0.85979 2.36826,-0.61931 0.74895,0.24965 0.29565,0.70294 -1.05655,1.05655 -1.66335,0.43497 -2.05378,0.30483 -1.31171,-0.43724 z m 39.04405,-0.51466 c 0.72187,-0.28887 1.58438,-0.25335 1.91667,0.0789 0.33229,0.33229 -0.25834,0.56864 -1.3125,0.52522 -1.16495,-0.048 -1.4019,-0.28494 -0.60417,-0.60416 z m -303.8125,-0.7099 c 0,-0.21616 0.69837,-0.661 1.55194,-0.98855 0.88992,-0.34149 1.29132,-0.17385 0.94098,0.39301 -0.58726,0.95021 -2.49292,1.40545 -2.49292,0.59554 z m 276.8125,-1.2901 c 0.72187,-0.28887 1.58438,-0.25335 1.91667,0.0789 0.33229,0.33229 -0.25834,0.56864 -1.3125,0.52522 -1.16495,-0.048 -1.4019,-0.28494 -0.60417,-0.60416 z m 10,0 c 0.72187,-0.28887 1.58438,-0.25335 1.91667,0.0789 0.33229,0.33229 -0.25834,0.56864 -1.3125,0.52522 -1.16495,-0.048 -1.4019,-0.28494 -0.60417,-0.60416 z m 5,0 c 0.72187,-0.28887 1.58438,-0.25335 1.91667,0.0789 0.33229,0.33229 -0.25834,0.56864 -1.3125,0.52522 -1.16495,-0.048 -1.4019,-0.28494 -0.60417,-0.60416 z m -73.90131,-2.65343 c 1.46191,-1.81997 7.08881,-6.10548 7.08881,-5.39892 0,0.2204 -1.9125,1.92061 -4.25,3.77824 -2.3375,1.85762 -3.61497,2.58693 -2.83881,1.62068 z m 134.4938,-0.91346 -1.90499,-2.25 2.25,1.90499 c 1.2375,1.04774 2.25,2.06024 2.25,2.25 0,0.80025 -0.80479,0.20945 -2.59501,-1.90499 z m -345.40499,0.87244 c 0,-0.20765 0.7875,-0.99515 1.75,-1.75 1.58606,-1.24387 1.62143,-1.2085 0.37756,0.37756 -1.30637,1.66575 -2.12756,2.19548 -2.12756,1.37244 z m 183,-1.56342 c 0,-0.51754 0.44485,-1.21592 0.98855,-1.55194 0.56686,-0.35034 0.7345,0.0511 0.39301,0.94098 -0.66479,1.73242 -1.38156,2.04939 -1.38156,0.61096 z m 157.87244,-2.80902 c -1.24387,-1.58606 -1.2085,-1.62143 0.37756,-0.37756 0.9625,0.75485 1.75,1.54235 1.75,1.75 0,0.82304 -0.82119,0.29331 -2.12756,-1.37244 z m 29.58644,0.68347 c -0.36253,-0.58659 -0.44468,-1.281 -0.18255,-1.54313 0.26212,-0.26213 0.74306,0.21781 1.06875,1.06653 0.67618,1.76211 0.0999,2.07206 -0.8862,0.4766 z m -183.6644,-2.43347 c 1.06463,-2.02468 7.57063,-8.39982 12.26972,-12.02294 1.41031,-1.08738 0.73531,-0.26559 -1.5,1.8262 -2.23531,2.09179 -5.80956,5.69179 -7.94278,8 -2.13323,2.30821 -3.40535,3.29674 -2.82694,2.19674 z m 32.63809,-0.3909 c 0.71346,-1.15439 4.56743,-3.48267 4.56743,-2.75929 0,0.23109 -1.18041,1.1936 -2.62312,2.13891 -1.44272,0.9453 -2.31766,1.22448 -1.94431,0.62038 z M 57.360709,255.93568 c -0.964979,-2.51469 -0.680311,-3.16355 0.498534,-1.13634 0.58369,1.00375 0.850598,2.03566 0.593129,2.29313 -0.257468,0.25747 -0.748717,-0.26309 -1.091663,-1.15679 z m 387.237241,-0.52069 -2.36078,-2.05935 2.75,1.67436 c 1.5125,0.9209 2.75,1.84761 2.75,2.05935 0,0.78084 -0.83549,0.33522 -3.13922,-1.67436 z m -325.82534,0.92416 c -0.0195,-0.34935 0.62195,-2.14935 1.42542,-4 0.80347,-1.85065 1.46252,-2.68981 1.46456,-1.86481 0.004,1.44112 -2.8174,7.16586 -2.88998,5.86481 z m 219.96456,-2.86481 c 0.825,-0.53316 1.95,-0.96937 2.5,-0.96937 0.55,0 0.325,0.43621 -0.5,0.96937 -0.825,0.53316 -1.95,0.96937 -2.5,0.96937 -0.55,0 -0.325,-0.43621 0.5,-0.96937 z m 133.94617,-2.75 -3.44617,-3.75 3.75,3.44617 c 2.0625,1.89539 3.75,3.58289 3.75,3.75 0,0.76362 -0.84622,0.0443 -4.05383,-3.44617 z m -129.94617,1.22968 c 0,-0.52815 5.03095,-3.16075 8.72218,-4.56415 1.50467,-0.57208 2.43221,-0.73659 2.06121,-0.36558 -0.95469,0.95468 -10.78339,5.44797 -10.78339,4.92973 z m -258.1875,-2.16279 c 0.721875,-0.28887 1.584375,-0.25335 1.916667,0.0789 0.332291,0.33229 -0.258334,0.56864 -1.3125,0.52522 -1.164943,-0.048 -1.4019,-0.28494 -0.604167,-0.60416 z m 343.1875,-2.31689 c -0.825,-0.53316 -1.05,-0.96937 -0.5,-0.96937 0.55,0 1.675,0.43621 2.5,0.96937 0.825,0.53316 1.05,0.96937 0.5,0.96937 -0.55,0 -1.675,-0.43621 -2.5,-0.96937 z m -351,-4 c -0.588702,-1.1 -0.845368,-2 -0.570368,-2 0.275,0 0.981666,0.9 1.570368,2 0.588702,1.1 0.845368,2 0.570368,2 -0.275,0 -0.981666,-0.9 -1.570368,-2 z m 283.5,1 c 1.1,-0.47269 2.675,-0.85943 3.5,-0.85943 0.94548,0 0.76064,0.31771 -0.5,0.85943 -1.1,0.47269 -2.675,0.85943 -3.5,0.85943 -0.94548,0 -0.76064,-0.31771 0.5,-0.85943 z m 56.3125,-0.68311 c 0.72187,-0.28887 1.58438,-0.25335 1.91667,0.0789 0.33229,0.33229 -0.25834,0.56864 -1.3125,0.52522 -1.16495,-0.048 -1.4019,-0.28494 -0.60417,-0.60416 z m -293.65461,-2.31689 c 0,-1.375 0.22698,-1.9375 0.50439,-1.25 0.27741,0.6875 0.27741,1.8125 0,2.5 -0.27741,0.6875 -0.50439,0.125 -0.50439,-1.25 z m 243.59211,1.33772 c 0.6875,-0.27741 1.8125,-0.27741 2.5,0 0.6875,0.27741 0.125,0.50439 -1.25,0.50439 -1.375,0 -1.9375,-0.22698 -1.25,-0.50439 z m 5.51903,-1.03071 c 0.97297,-0.25354 2.32297,-0.23687 3,0.0371 0.67703,0.27393 -0.11903,0.48137 -1.76903,0.46099 -1.65,-0.0204 -2.20394,-0.2445 -1.23097,-0.49804 z m 34.48097,0.0307 c 0.6875,-0.27741 1.8125,-0.27741 2.5,0 0.6875,0.27741 0.125,0.50439 -1.25,0.50439 -1.375,0 -1.9375,-0.22698 -1.25,-0.50439 z M 52.969173,238.47434 c 0,-1.925 0.205795,-2.7125 0.457323,-1.75 0.251527,0.9625 0.251527,2.5375 0,3.5 -0.251528,0.9625 -0.457323,0.175 -0.457323,-1.75 z m 326.517997,2.33772 c 0.6875,-0.27741 1.8125,-0.27741 2.5,0 0.6875,0.27741 0.125,0.50439 -1.25,0.50439 -1.375,0 -1.9375,-0.22698 -1.25,-0.50439 z m 19,-0.0434 c 1.2375,-0.23836 3.2625,-0.23836 4.5,0 1.2375,0.23835 0.225,0.43337 -2.25,0.43337 -2.475,0 -3.4875,-0.19502 -2.25,-0.43337 z m -322.671053,-1.8776 c 0.04798,-1.16495 0.284941,-1.4019 0.604167,-0.60417 0.288871,0.72187 0.253344,1.58437 -0.07895,1.91667 -0.332292,0.33229 -0.568641,-0.25834 -0.52522,-1.3125 z M 320.14426,223.47434 c 0,-9.075 0.1516,-12.7875 0.3369,-8.25 0.18529,4.5375 0.18529,11.9625 0,16.5 -0.1853,4.5375 -0.3369,0.825 -0.3369,-8.25 z m 136.03404,14.44483 c -1.86402,-1.49339 -1.85176,-1.51185 0.30887,-0.46481 1.2375,0.59969 2.25,1.29951 2.25,1.55516 0,0.76522 -0.51861,0.54424 -2.55887,-1.09035 z m -333.28324,-1.44483 c 0,-1.375 0.22698,-1.9375 0.50439,-1.25 0.27741,0.6875 0.27741,1.8125 0,2.5 -0.27741,0.6875 -0.50439,0.125 -0.50439,-1.25 z m -47.15789,-0.94098 c 0,-0.51754 0.444846,-1.21592 0.988546,-1.55194 0.56686,-0.35034 0.734507,0.0511 0.393011,0.94098 -0.664791,1.73242 -1.381557,2.04939 -1.381557,0.61096 z m 24.078947,-0.35447 c -0.04342,-0.9875 -1.229515,-2.94603 -2.635765,-4.35228 -1.40625,-1.40625 -1.996131,-2.36992 -1.310846,-2.14149 1.999425,0.66647 5.152804,5.45792 4.564494,6.93559 -0.36424,0.91484 -0.564527,0.77162 -0.617883,-0.44182 z m 349.671053,-0.77264 c -2.0625,-1.08883 -3.75,-2.20308 -3.75,-2.47612 0,-0.27304 1.8,0.42185 4,1.54421 2.2,1.12236 4,2.2565 4,2.52032 0,0.65417 -0.007,0.65155 -4.25,-1.58841 z M 53.816117,230.89101 c 0.04798,-1.16495 0.284941,-1.4019 0.604167,-0.60417 0.288871,0.72187 0.253344,1.58437 -0.07895,1.91667 -0.332292,0.33229 -0.568641,-0.25834 -0.52522,-1.3125 z m 25.147243,-0.99539 c 0.949405,-0.99123 1.94144,-1.58698 2.204522,-1.3239 0.263082,0.26308 -0.513704,1.07408 -1.72619,1.80223 -2.106309,1.26492 -2.127619,1.24361 -0.478332,-0.47833 z m 42.85276,-0.005 c 0.048,-1.16495 0.28494,-1.4019 0.60416,-0.60417 0.28887,0.72187 0.25335,1.58437 -0.0789,1.91667 -0.3323,0.33229 -0.56864,-0.25834 -0.52522,-1.3125 z m -38.3105,-2.58512 c 0.581102,-0.5811 1.646819,-0.85979 2.36826,-0.61931 0.748946,0.24965 0.295653,0.70294 -1.056551,1.05655 -1.663345,0.43497 -2.053777,0.30483 -1.311709,-0.43724 z m 7.04405,-0.51466 c 0.721875,-0.28887 1.584375,-0.25335 1.916667,0.0789 0.332291,0.33229 -0.258334,0.56864 -1.3125,0.52522 -1.164943,-0.048 -1.4019,-0.28494 -0.604167,-0.60416 z m 259.1875,-0.70951 c 0,-0.21616 0.69837,-0.661 1.55194,-0.98855 0.88992,-0.34149 1.29132,-0.17385 0.94098,0.39301 -0.58726,0.95021 -2.49292,1.40545 -2.49292,0.59554 z m -294,-0.98998 c 0,-1.07319 2.975379,-6.61701 3.55136,-6.61701 0.275,0 -0.243785,1.4625 -1.152856,3.25 -1.856235,3.6499 -2.398504,4.41113 -2.398504,3.36701 z m 301.81796,-1.83497 c 0.53328,-0.53328 1.8049,-0.79255 2.82582,-0.57615 1.37482,0.29142 1.12336,0.54288 -0.9696,0.96961 -1.82482,0.37205 -2.48236,0.23268 -1.85622,-0.39346 z m 5.99454,-1.46515 c 0.72187,-0.28887 1.58438,-0.25335 1.91667,0.0789 0.33229,0.33229 -0.25834,0.56864 -1.3125,0.52522 -1.16495,-0.048 -1.4019,-0.28494 -0.60417,-0.60416 z m 4.9375,-0.97917 c 0.6875,-0.27741 1.8125,-0.27741 2.5,0 0.6875,0.27741 0.125,0.50439 -1.25,0.50439 -1.375,0 -1.9375,-0.22698 -1.25,-0.50439 z m 35.51903,-0.0307 c 0.97297,-0.25354 2.32297,-0.23687 3,0.0371 0.67703,0.27393 -0.11903,0.48137 -1.76903,0.46099 -1.65,-0.0204 -2.20394,-0.2445 -1.23097,-0.49804 z m -27.50112,-1.03174 c 1.79735,-0.22256 4.49735,-0.21797 6,0.0102 1.50265,0.22818 0.0321,0.41027 -3.26791,0.40466 -3.3,-0.006 -4.52944,-0.1923 -2.73209,-0.41486 z m 16.98209,0.019 c 1.2375,-0.23836 3.2625,-0.23836 4.5,0 1.2375,0.23835 0.225,0.43337 -2.25,0.43337 -2.475,0 -3.4875,-0.19502 -2.25,-0.43337 z m -280.31291,-5.54428 -2.93709,-3.25 3.25,2.93709 c 1.7875,1.6154 3.25,3.0779 3.25,3.25 0,0.77256 -0.82513,0.0924 -3.56291,-2.93709 z m -52.43709,1.87244 c 0,-0.20765 0.7875,-0.99515 1.75,-1.75 1.586056,-1.24387 1.621426,-1.2085 0.377555,0.37756 -1.306369,1.66575 -2.127555,2.19548 -2.127555,1.37244 z m 345.99138,-28.09338 -0.49138,-27.97095 -2.5,-1.26431 c -1.56067,-0.78927 -1.9007,-1.26986 -0.90499,-1.27906 0.87726,-0.008 2.34712,0.81632 3.26635,1.83207 1.49106,1.6476 1.64168,4.80263 1.39637,29.25 l -0.27498,27.40319 z m -58.83349,24.47094 c 0,-1.375 0.22698,-1.9375 0.50439,-1.25 0.27741,0.6875 0.27741,1.8125 0,2.5 -0.27741,0.6875 -0.50439,0.125 -0.50439,-1.25 z m -281.9317,-1.57872 c 0.949405,-0.99123 1.94144,-1.58698 2.204522,-1.3239 0.263082,0.26308 -0.513704,1.07408 -1.72619,1.80223 -2.106309,1.26492 -2.127619,1.24361 -0.478332,-0.47833 z m 4.77381,-3.42128 c 0.825,-0.53316 1.95,-0.96937 2.5,-0.96937 0.55,0 0.325,0.43621 -0.5,0.96937 -0.825,0.53316 -1.95,0.96937 -2.5,0.96937 -0.55,0 -0.325,-0.43621 0.5,-0.96937 z m 22.8125,-3.68311 c 0.721875,-0.28887 1.584375,-0.25335 1.916667,0.0789 0.332291,0.33229 -0.258334,0.56864 -1.3125,0.52522 -1.164943,-0.048 -1.4019,-0.28494 -0.604167,-0.60416 z m 176.97102,-0.0553 c 2.90594,-0.20265 7.40594,-0.20052 10,0.005 2.59406,0.20525 0.21648,0.37104 -5.28352,0.36844 -5.5,-0.003 -7.62242,-0.17053 -4.71648,-0.37317 z m 27.46648,0.0491 c 0.9625,-0.25152 2.5375,-0.25152 3.5,0 0.9625,0.25153 0.175,0.45733 -1.75,0.45733 -1.925,0 -2.7125,-0.2058 -1.75,-0.45733 z m 8.4777,-0.0324 c 1.77523,-0.22091 4.92523,-0.22454 7,-0.008 2.07476,0.21648 0.6223,0.39722 -3.2277,0.40166 -3.85,0.004 -5.54754,-0.17268 -3.7723,-0.39359 z M 86.006202,202.78135 c 0.972967,-0.25354 2.322967,-0.23687 3,0.0371 0.677032,0.27393 -0.119032,0.48137 -1.769032,0.46099 -1.65,-0.0204 -2.203936,-0.2445 -1.230968,-0.49804 z m 262.016978,-7.80701 c 0.008,-2.75 0.20172,-3.75631 0.43157,-2.23625 0.22986,1.52006 0.22371,3.77006 -0.0136,5 -0.23736,1.22994 -0.42542,-0.0137 -0.41792,-2.76375 z M 132.98717,162.4853 c -4.51543,-2.75311 -4.09298,-3.42613 0.5,-0.79657 4.6195,2.64476 4.80636,2.78652 3.66667,2.78187 -0.50417,-0.002 -2.37917,-0.89544 -4.16667,-1.9853 z m 214.866,0.39403 c -0.14776,-2.66854 3.17784,-5.72439 5.5596,-5.10864 1.54087,0.39835 1.49376,0.48967 -0.30316,0.58765 -2.38841,0.13022 -3.92003,1.65103 -4.64883,4.616 -0.473,1.92429 -0.496,1.92069 -0.60761,-0.095 z m -222.19169,-6.15499 -2.42431,-2.75 2.75,2.42431 c 2.57029,2.26589 3.20859,3.07569 2.42431,3.07569 -0.17912,0 -1.41662,-1.2375 -2.75,-2.75 z m 55.57569,-0.25 c 0.99549,-1.1 2.03498,-2 2.30998,-2 0.275,0 -0.31449,0.9 -1.30998,2 -0.99549,1.1 -2.03498,2 -2.30998,2 -0.275,0 0.31449,-0.9 1.30998,-2 z m 178.3125,1.31689 c 0.72187,-0.28887 1.58438,-0.25335 1.91667,0.0789 0.33229,0.33229 -0.25834,0.56864 -1.3125,0.52522 -1.16495,-0.048 -1.4019,-0.28494 -0.60417,-0.60416 z m 8,0 c 0.72187,-0.28887 1.58438,-0.25335 1.91667,0.0789 0.33229,0.33229 -0.25834,0.56864 -1.3125,0.52522 -1.16495,-0.048 -1.4019,-0.28494 -0.60417,-0.60416 z m -182.48621,-5.99716 c 1.00446,-1.1802 2.90628,-4.77244 4.22627,-7.98277 1.31998,-3.21033 2.40625,-5.16196 2.41394,-4.33696 0.0227,2.4408 -4.49139,11.37819 -6.55736,12.98277 -1.86189,1.44607 -1.86394,1.42966 -0.0829,-0.66304 z m -66.37213,-4.40538 c -0.61391,-1.1471 -0.92784,-2.274 -0.69762,-2.50422 0.23022,-0.23022 0.93203,0.70832 1.55958,2.08564 1.37807,3.02454 0.70709,3.35038 -0.86196,0.41858 z m -2.38987,-5.62122 c -0.54268,-1.4252 -0.42782,-1.54006 0.5598,-0.5598 0.68342,0.67834 0.99067,1.48524 0.68278,1.79313 -0.30789,0.30789 -0.86705,-0.24711 -1.24258,-1.23333 z m 45.93571,-2.29313 c 0.99549,-1.1 2.03498,-2 2.30998,-2 0.275,0 -0.31449,0.9 -1.30998,2 -0.99549,1.1 -2.03498,2 -2.30998,2 -0.275,0 0.31449,-0.9 1.30998,-2 z m -20.09501,-1.25 -1.90499,-2.25 2.25,1.90499 c 2.11444,1.79022 2.70524,2.59501 1.90499,2.59501 -0.18976,0 -1.20226,-1.0125 -2.25,-2.25 z m -27.21004,-3.25 c 0.0204,-1.65 0.2445,-2.20394 0.49804,-1.23097 0.25354,0.97297 0.23687,2.32297 -0.037,3 -0.27393,0.67703 -0.48137,-0.11903 -0.46099,-1.76903 z m 76.96294,0.5 c 0,-1.375 0.22698,-1.9375 0.50439,-1.25 0.27741,0.6875 0.27741,1.8125 0,2.5 -0.27741,0.6875 -0.50439,0.125 -0.50439,-1.25 z m 244.92106,-3.58333 c 0.048,-1.16495 0.28494,-1.4019 0.60416,-0.60417 0.28887,0.72187 0.25335,1.58437 -0.0789,1.91667 -0.33229,0.33229 -0.56864,-0.25834 -0.52522,-1.3125 z m -268.80659,-4.41667 c 0,-2.475 0.19502,-3.4875 0.43337,-2.25 0.23836,1.2375 0.23836,3.2625 0,4.5 -0.23835,1.2375 -0.43337,0.225 -0.43337,-2.25 z m -30.07741,0.5 c 0.0204,-1.65 0.2445,-2.20394 0.49804,-1.23097 0.25354,0.97297 0.23687,2.32297 -0.0371,3 -0.27393,0.67703 -0.48137,-0.11903 -0.46099,-1.76903 z m 54.96294,0.5 c 0,-1.375 0.22698,-1.9375 0.50439,-1.25 0.27741,0.6875 0.27741,1.8125 0,2.5 -0.27741,0.6875 -0.50439,0.125 -0.50439,-1.25 z m -1.07894,-5.58333 c 0.048,-1.16495 0.28494,-1.4019 0.60416,-0.60417 0.28887,0.72187 0.25335,1.58437 -0.0789,1.91667 -0.3323,0.33229 -0.56864,-0.25834 -0.52522,-1.3125 z m -76.92106,-1.41667 c 0,-1.375 0.22698,-1.9375 0.50439,-1.25 0.27741,0.6875 0.27741,1.8125 0,2.5 -0.27741,0.6875 -0.50439,0.125 -0.50439,-1.25 z m 23.84585,1.2848 c -0.005,-1.60989 5.89454,-8.2848 7.32236,-8.2848 0.6154,0 0.0802,0.72752 -1.18927,1.61671 -1.2695,0.8892 -3.16795,3.0267 -4.21877,4.75 -1.05082,1.72331 -1.91227,2.58645 -1.91432,1.91809 z m 24.43335,-5.5348 -2.93709,-3.25 3.25,2.93709 c 3.02946,2.73778 3.70965,3.56291 2.93709,3.56291 -0.1721,0 -1.6346,-1.4625 -3.25,-3.25 z m 27.64186,-0.41821 c -0.0434,-0.64252 -0.33793,-1.99252 -0.65446,-3 -0.54705,-1.74122 -0.51883,-1.7434 0.57078,-0.0441 0.63045,0.98322 0.92496,2.33322 0.65445,3 -0.35498,0.87499 -0.51379,0.88727 -0.57077,0.0441 z M 116.821,113.97434 c 0,-0.55 0.86228,-2.575 1.91617,-4.5 1.05389,-1.925 1.91617,-3.05 1.91617,-2.5 0,0.55 -0.86228,2.575 -1.91617,4.5 -1.05389,1.925 -1.91617,3.05 -1.91617,2.5 z m 320.24431,-6 c 0.004,-3.85 0.18518,-5.30246 0.40166,-3.2277 0.21647,2.07477 0.21284,5.22477 -0.008,7 -0.22091,1.77524 -0.39803,0.0777 -0.39359,-3.7723 z m -285.07814,4.81067 c 0.9625,-0.25152 2.5375,-0.25152 3.5,0 0.9625,0.25153 0.175,0.45733 -1.75,0.45733 -1.925,0 -2.7125,-0.2058 -1.75,-0.45733 z m 36.31429,-3.01754 c -0.54268,-1.4252 -0.42782,-1.54006 0.5598,-0.5598 0.68342,0.67834 0.99067,1.48524 0.68278,1.79313 -0.30789,0.30789 -0.86705,-0.24711 -1.24258,-1.23333 z m -3.56738,-5.54313 c -1.47225,-2.0111 -1.71373,-2.70955 -0.63346,-1.83224 1.63978,1.3317 4.1192,5.08224 3.35979,5.08224 -0.19092,0 -1.41777,-1.4625 -2.72633,-3.25 z m -58.99691,-4.249997 c 1.86578,-1.925 3.61733,-3.5 3.89233,-3.5 0.275,0 -1.02655,1.575 -2.89233,3.5 -1.86578,1.924997 -3.61733,3.499997 -3.89233,3.499997 -0.275,0 1.02655,-1.575 2.89233,-3.499997 z m 369,0.499997 c -0.5887,-1.099997 -0.84537,-1.999997 -0.57037,-1.999997 0.275,0 0.98167,0.9 1.57037,1.999997 0.5887,1.1 0.84537,2 0.57037,2 -0.275,0 -0.98167,-0.9 -1.57037,-2 z m -316.59501,-3.249997 -1.90499,-2.25 2.25,1.904988 c 2.11444,1.790218 2.70524,2.595012 1.90499,2.595012 -0.18976,0 -1.20226,-1.0125 -2.25,-2.25 z m 266.86404,0.557009 c 0.97297,-0.253543 2.32297,-0.236869 3,0.03705 0.67703,0.273923 -0.11903,0.481368 -1.76903,0.460988 -1.65,-0.02038 -2.20394,-0.244498 -1.23097,-0.498042 z m -314.26903,-2.70002 c 0,-0.216156 0.69837,-0.661002 1.55194,-0.988546 0.88992,-0.341496 1.29132,-0.173849 0.94098,0.393011 -0.58726,0.950204 -2.49292,1.405448 -2.49292,0.595535 z m 40,-2.606989 c -1.925,-1.053893 -3.14015,-1.935031 -2.70034,-1.958084 1.0597,-0.05555 6.70034,2.877238 6.70034,3.483764 0,0.654509 -0.0585,0.632185 -4,-1.52568 z m -18.73625,-4.717581 c 1.52006,-0.229855 3.77006,-0.223712 5,0.01365 1.22994,0.237362 -0.0137,0.425424 -2.76375,0.417917 -2.75,-0.0075 -3.75631,-0.201713 -2.23625,-0.431567 z"
       id="path4" />
    <path
       style="fill:#267676"
       d="m 225.96917,538.47434 c 0,-1.925 0.2058,-2.7125 0.45733,-1.75 0.25152,0.9625 0.25152,2.5375 0,3.5 -0.25153,0.9625 -0.45733,0.175 -0.45733,-1.75 z m -0.0741,-17 c 0,-1.375 0.22698,-1.9375 0.50439,-1.25 0.27741,0.6875 0.27741,1.8125 0,2.5 -0.27741,0.6875 -0.50439,0.125 -0.50439,-1.25 z m -0.0789,-9.58333 c 0.048,-1.16495 0.28494,-1.4019 0.60416,-0.60417 0.28887,0.72187 0.25335,1.58438 -0.0789,1.91667 -0.3323,0.33229 -0.56864,-0.25834 -0.52522,-1.3125 z m 0.32579,-17.91667 c 10e-4,-8.8 0.15425,-12.26613 0.33996,-7.70252 0.18572,4.56362 0.18468,11.76362 -0.002,16 -0.18698,4.23639 -0.33893,0.50252 -0.33766,-8.29748 z m -66.07665,-13 c 0.004,-3.85 0.18518,-5.30246 0.40166,-3.2277 0.21647,2.07477 0.21284,5.22477 -0.008,7 -0.22091,1.77524 -0.39803,0.0777 -0.39359,-3.7723 z m 336.07685,3.25 -1.90499,-2.25 2.25,1.90499 c 2.11444,1.79022 2.70524,2.59501 1.90499,2.59501 -0.18976,0 -1.20226,-1.0125 -2.25,-2.25 z m -270.15281,-10.25 c 0.0111,-2.2 0.21589,-2.98225 0.45508,-1.73834 0.23919,1.24391 0.23011,3.04391 -0.0202,4 -0.25029,0.95609 -0.446,-0.0617 -0.4349,-2.26166 z m 298.90571,1.5 c 0,-1.375 0.22698,-1.9375 0.50439,-1.25 0.27741,0.6875 0.27741,1.8125 0,2.5 -0.27741,0.6875 -0.50439,0.125 -0.50439,-1.25 z m -37.7529,-1.25 -1.90499,-2.25 2.25,1.90499 c 1.2375,1.04774 2.25,2.06024 2.25,2.25 0,0.80025 -0.80479,0.20945 -2.59501,-1.90499 z m -261.07685,-13.25 c 0.004,-3.85 0.18518,-5.30246 0.40166,-3.2277 0.21647,2.07477 0.21284,5.22477 -0.008,7 -0.22091,1.77524 -0.39803,0.0777 -0.39359,-3.7723 z m -66.17025,-8.5 c 0,-1.375 0.22698,-1.9375 0.50439,-1.25 0.27741,0.6875 0.27741,1.8125 0,2.5 -0.27741,0.6875 -0.50439,0.125 -0.50439,-1.25 z m 66.26069,-18 c 0,-10.725 0.14711,-15.1125 0.32692,-9.75 0.17981,5.3625 0.17981,14.1375 0,19.5 -0.17981,5.3625 -0.32692,0.975 -0.32692,-9.75 z m 234.45386,11.25 c -1.24387,-1.58606 -1.2085,-1.62143 0.37756,-0.37756 1.66575,1.30637 2.19548,2.12756 1.37244,2.12756 -0.20765,0 -0.99515,-0.7875 -1.75,-1.75 z m -140,-17 c -1.24387,-1.58606 -1.2085,-1.62143 0.37756,-0.37756 1.66575,1.30637 2.19548,2.12756 1.37244,2.12756 -0.20765,0 -0.99515,-0.7875 -1.75,-1.75 z m -160.67749,-7.75 c 0.0204,-1.65 0.2445,-2.20394 0.49804,-1.23097 0.25354,0.97297 0.23687,2.32297 -0.0371,3 -0.27393,0.67703 -0.48137,-0.11903 -0.46099,-1.76903 z m 252.12512,-4.5 c 0,-3.575 0.1815,-5.0375 0.40333,-3.25 0.22182,1.7875 0.22182,4.7125 0,6.5 -0.22183,1.7875 -0.40333,0.325 -0.40333,-3.25 z m -252.08807,-3 c 0,-1.925 0.2058,-2.7125 0.45733,-1.75 0.25152,0.9625 0.25152,2.5375 0,3.5 -0.25153,0.9625 -0.45733,0.175 -0.45733,-1.75 z m 66.16256,-12.5 c 0.002,-7.7 0.15853,-10.71781 0.34883,-6.70625 0.1903,4.01156 0.18902,10.31156 -0.003,14 -0.19169,3.68844 -0.34739,0.40625 -0.34583,-7.29375 z m 186.03158,-13 c 7.5e-4,-12.1 0.14515,-16.91256 0.32089,-10.69458 0.17573,6.21799 0.17511,16.11799 -10e-4,22 -0.17649,5.88202 -0.32027,0.79458 -0.31951,-11.30542 z m -252.34719,17.91667 c 0.048,-1.16495 0.28494,-1.4019 0.60416,-0.60417 0.28887,0.72187 0.25335,1.58438 -0.0789,1.91667 -0.3323,0.33229 -0.56864,-0.25834 -0.52522,-1.3125 z m -33.64186,-14.66667 -2.93709,-3.25 3.25,2.93709 c 3.02946,2.73778 3.70965,3.56291 2.93709,3.56291 -0.1721,0 -1.6346,-1.4625 -3.25,-3.25 z m 99.86257,-12.75 c 0,-3.025 0.18747,-4.2625 0.41659,-2.75 0.22913,1.5125 0.22913,3.9875 0,5.5 -0.22912,1.5125 -0.41659,0.275 -0.41659,-2.75 z m -83.42722,-5.75 c -1.24387,-1.58606 -1.2085,-1.62143 0.37756,-0.37756 0.9625,0.75485 1.75,1.54235 1.75,1.75 0,0.82304 -0.82119,0.29331 -2.12756,-1.37244 z m 83.39992,-8.25 c 0,-2.475 0.19502,-3.4875 0.43337,-2.25 0.23836,1.2375 0.23836,3.2625 0,4.5 -0.23835,1.2375 -0.43337,0.225 -0.43337,-2.25 z m 186.15643,-22.5 c 7e-4,-12.65 0.14401,-17.68711 0.31847,-11.19358 0.17445,6.49353 0.17388,16.84353 -10e-4,23 -0.17516,6.15647 -0.31789,0.84358 -0.31719,-11.80642 z m -316.556345,19.75 c -1.243871,-1.58606 -1.208501,-1.62143 0.377555,-0.37756 0.9625,0.75485 1.75,1.54235 1.75,1.75 0,0.82304 -0.821186,0.29331 -2.127555,-1.37244 z m 374.206505,-1.83333 c 0.048,-1.16495 0.28494,-1.4019 0.60416,-0.60417 0.28887,0.72187 0.25335,1.58438 -0.0789,1.91667 -0.33229,0.33229 -0.56864,-0.25834 -0.52522,-1.3125 z m 26.17323,-2.91667 c 0.0111,-2.2 0.21589,-2.98225 0.45508,-1.73834 0.23919,1.24391 0.23011,3.04391 -0.0202,4 -0.25029,0.95609 -0.446,-0.0617 -0.4349,-2.26166 z m -25.17323,-9.08333 c 0.048,-1.16495 0.28494,-1.4019 0.60416,-0.60417 0.28887,0.72187 0.25335,1.58438 -0.0789,1.91667 -0.33229,0.33229 -0.56864,-0.25834 -0.52522,-1.3125 z m -186,-7 c 0.048,-1.16495 0.28494,-1.4019 0.60416,-0.60417 0.28887,0.72187 0.25335,1.58438 -0.0789,1.91667 -0.33229,0.33229 -0.56864,-0.25834 -0.52522,-1.3125 z m 211.15305,-4.41667 c 0,-1.925 0.2058,-2.7125 0.45733,-1.75 0.25152,0.9625 0.25152,2.5375 0,3.5 -0.25153,0.9625 -0.45733,0.175 -0.45733,-1.75 z m -210.15305,-4.58333 c 0.048,-1.16495 0.28494,-1.4019 0.60416,-0.60417 0.28887,0.72187 0.25335,1.58438 -0.0789,1.91667 -0.33229,0.33229 -0.56864,-0.25834 -0.52522,-1.3125 z m 209.07894,-4.41667 c 0,-1.375 0.22698,-1.9375 0.50439,-1.25 0.27741,0.6875 0.27741,1.8125 0,2.5 -0.27741,0.6875 -0.50439,0.125 -0.50439,-1.25 z m -27.07894,-0.58333 c 0.048,-1.16495 0.28494,-1.4019 0.60416,-0.60417 0.28887,0.72187 0.25335,1.58438 -0.0789,1.91667 -0.33229,0.33229 -0.56864,-0.25834 -0.52522,-1.3125 z M 155.60961,312.72434 c -1.24387,-1.58606 -1.2085,-1.62143 0.37756,-0.37756 1.66575,1.30637 2.19548,2.12756 1.37244,2.12756 -0.20765,0 -0.99515,-0.7875 -1.75,-1.75 z m 28,-8 c -1.24387,-1.58606 -1.2085,-1.62143 0.37756,-0.37756 1.66575,1.30637 2.19548,2.12756 1.37244,2.12756 -0.20765,0 -0.99515,-0.7875 -1.75,-1.75 z m -15.41356,-16.31653 c -0.36253,-0.58659 -0.44468,-1.281 -0.18255,-1.54313 0.26212,-0.26213 0.74306,0.21781 1.06875,1.06653 0.67618,1.76211 0.0999,2.07206 -0.8862,0.4766 z M 496.21488,186.47434 c 0,-46.475 0.1224,-65.4875 0.272,-42.25 0.1496,23.2375 0.1496,61.2625 0,84.5 -0.1496,23.2375 -0.272,4.225 -0.272,-42.25 z m -93.66521,82.31689 c 0.72187,-0.28887 1.58438,-0.25335 1.91667,0.0789 0.33229,0.33229 -0.25834,0.56864 -1.3125,0.52522 -1.16495,-0.048 -1.4019,-0.28494 -0.60417,-0.60416 z m -15.54347,-1.00988 c 0.97297,-0.25354 2.32297,-0.23687 3,0.0371 0.67703,0.27393 -0.11903,0.48137 -1.76903,0.46099 -1.65,-0.0204 -2.20394,-0.2445 -1.23097,-0.49804 z m 91.65528,-11.05701 -2.42431,-2.75 2.75,2.42431 c 2.57029,2.26589 3.20859,3.07569 2.42431,3.07569 -0.17912,0 -1.41662,-1.2375 -2.75,-2.75 z m -12.05187,-11 c -1.24387,-1.58606 -1.2085,-1.62143 0.37756,-0.37756 1.66575,1.30637 2.19548,2.12756 1.37244,2.12756 -0.20765,0 -0.99515,-0.7875 -1.75,-1.75 z m -29.45065,-39.25 c 0,-11.275 0.14584,-15.8875 0.32409,-10.25 0.17825,5.6375 0.17825,14.8625 0,20.5 -0.17825,5.6375 -0.32409,1.025 -0.32409,-10.25 z m -151.60929,-2.68311 c 0.72187,-0.28887 1.58438,-0.25335 1.91667,0.0789 0.33229,0.33229 -0.25834,0.56864 -1.3125,0.52522 -1.16495,-0.048 -1.4019,-0.28494 -0.60417,-0.60416 z m 4.9375,-0.0226 c 1.2375,-0.23836 3.2625,-0.23836 4.5,0 1.2375,0.23835 0.225,0.43337 -2.25,0.43337 -2.475,0 -3.4875,-0.19502 -2.25,-0.43337 z m 146.6857,-44.79429 c 5.7e-4,-14.3 0.14102,-20.01094 0.31211,-12.69097 0.17108,7.31996 0.17062,19.01996 -0.001,26 -0.1717,6.98003 -0.31168,0.99097 -0.31111,-13.30903 z m -81.6857,-1.16228 c 0.6875,-0.27741 1.8125,-0.27741 2.5,0 0.6875,0.27741 0.125,0.50439 -1.25,0.50439 -1.375,0 -1.9375,-0.22698 -1.25,-0.50439 z m 7.51903,-0.0307 c 0.97297,-0.25354 2.32297,-0.23687 3,0.0371 0.67703,0.27393 -0.11903,0.48137 -1.76903,0.46099 -1.65,-0.0204 -2.20394,-0.2445 -1.23097,-0.49804 z m 14.48097,-0.051 c 4.5375,-0.18529 11.9625,-0.18529 16.5,0 4.5375,0.1853 0.825,0.3369 -8.25,0.3369 -9.075,0 -12.7875,-0.1516 -8.25,-0.3369 z m 59.52236,-31.25602 c 0,-2.475 0.19502,-3.4875 0.43337,-2.25 0.23836,1.2375 0.23836,3.2625 0,4.5 -0.23835,1.2375 -0.43337,0.225 -0.43337,-2.25 z m -0.19341,-7.58333 c 0.048,-1.16495 0.28494,-1.4019 0.60416,-0.60417 0.28887,0.72187 0.25335,1.58437 -0.0789,1.91667 -0.33229,0.33229 -0.56864,-0.25834 -0.52522,-1.3125 z m 22.2254,-21.163432 c 5.94239,-0.1771 15.39239,-0.176433 21,0.0015 5.60761,0.177917 0.74565,0.322817 -10.80435,0.322001 -11.55,-8.16e-4 -16.13804,-0.146385 -10.19565,-0.323486 z"
       id="path2" />
  </g>
</svg>
